<svg height="688" node-id="1" sillyvg="true" template-height="688" template-width="1180" version="1.1" viewBox="0 0 1180 688" width="1180" xmlns="http://www.w3.org/2000/svg" xmlns:xlink="http://www.w3.org/1999/xlink"><defs node-id="172"><linearGradient gradientUnits="objectBoundingBox" id="linearGradient-5" node-id="7" spreadMethod="pad" x1="0.022740772" x2="0.9772581" y1="0.40509593" y2="0.59490365"><stop offset="0" stop-color="#d4eeff"/><stop offset="1" stop-color="#d4eeff"/></linearGradient><linearGradient gradientUnits="objectBoundingBox" id="linearGradient-8" node-id="11" spreadMethod="pad" x1="0.022345679" x2="0.9776545" y1="0.40533417" y2="0.59466416"><stop offset="0" stop-color="#d4eeff"/><stop offset="1" stop-color="#d4eeff"/></linearGradient><linearGradient gradientUnits="objectBoundingBox" id="linearGradient-13" node-id="16" spreadMethod="pad" x1="0.50957984" x2="0.49763414" y1="-0.25777137" y2="0.6874055"><stop offset="0" stop-color="#151686"/><stop offset="1" stop-color="#2438b6"/></linearGradient><linearGradient gradientUnits="objectBoundingBox" id="linearGradient-14" node-id="19" spreadMethod="pad" x1="0.5095815" x2="0.49763596" y1="-0.25777137" y2="0.6874055"><stop offset="0" stop-color="#151686"/><stop offset="1" stop-color="#2438b6"/></linearGradient><linearGradient gradientUnits="objectBoundingBox" id="linearGradient-17" node-id="23" spreadMethod="pad" x1="0.50810784" x2="0.49700126" y1="0.942686" y2="0.336995"><stop offset="0" stop-color="#151686"/><stop offset="1" stop-color="#2438b6"/></linearGradient><clipPath id="mask-2" node-id="35"><path d="M 0.00 267.81 L 51.19 267.81 L 51.19 319.00 L 0.00 319.00 Z" fill="#000000" fill-rule="evenodd" node-id="207" stroke="none" target-height="51.194458" target-width="51.193653" target-x="0" target-y="267.8085"/></clipPath><clipPath id="mask-4" node-id="45"><path d="M 274.01 281.29 L 602.34 412.90 L 617.98 373.87 L 289.65 242.26 Z" fill="#000000" fill-rule="evenodd" node-id="214" stroke="none" target-height="170.6407" target-width="343.97806" target-x="274.0065" target-y="242.25749"/></clipPath><clipPath id="mask-7" node-id="50"><path d="M 506.61 269.22 L 779.97 378.80 L 792.76 346.89 L 519.39 237.31 Z" fill="#000000" fill-rule="evenodd" node-id="221" stroke="none" target-height="141.48209" target-width="286.15665" target-x="506.60587" target-y="237.31332"/></clipPath><clipPath id="mask-10" node-id="88"><path d="M 25.58 0.70 L 247.98 0.70 L 247.98 223.10 L 25.58 223.10 Z" fill="#000000" fill-rule="evenodd" node-id="228" stroke="none" target-height="222.39828" target-width="222.39574" target-x="25.584013" target-y="0.70030594"/></clipPath><clipPath id="mask-12" node-id="109"><path d="M 132.26 683.17 L 1004.93 683.17 L 1004.93 686.46 L 132.26 686.46 Z" fill="#000000" fill-rule="evenodd" node-id="235" stroke="none" target-height="3.2938843" target-width="872.67554" target-x="132.25769" target-y="683.17035"/></clipPath><clipPath id="mask-16" node-id="122"><path d="M 548.23 163.94 L 548.23 177.29 L 542.97 180.25 L 537.84 183.52 L 532.83 187.11 L 532.83 187.11 L 526.41 192.32 L 520.31 198.02 L 514.51 204.21 L 509.00 210.93 L 503.79 218.20 L 498.87 226.05 L 494.25 234.52 L 489.94 243.63 L 485.95 253.43 L 485.95 253.43 L 482.32 263.88 L 479.12 274.93 L 476.34 286.62 L 474.01 299.00 L 472.16 312.09 L 470.80 325.94 L 469.96 340.59 L 469.67 356.08 L 469.67 356.08 L 469.96 371.40 L 470.80 385.92 L 472.17 399.69 L 474.05 412.73 L 476.40 425.10 L 479.22 436.82 L 482.48 447.93 L 486.16 458.47 L 486.16 458.47 L 490.22 468.35 L 494.58 477.53 L 499.24 486.02 L 504.19 493.89 L 509.43 501.15 L 514.95 507.85 L 520.76 514.01 L 526.86 519.65 L 533.27 524.80 L 533.27 524.80 L 538.14 528.26 L 543.13 531.42 L 548.23 534.29 L 548.23 534.29 L 548.23 547.70 L 605.10 547.70 L 614.40 547.40 L 623.29 546.52 L 631.82 545.07 L 640.01 543.06 L 647.89 540.52 L 655.48 537.42 L 662.80 533.78 L 669.88 529.58 L 676.72 524.80 L 676.72 524.80 L 683.07 519.66 L 689.13 514.02 L 694.90 507.87 L 700.39 501.17 L 705.60 493.91 L 710.54 486.04 L 715.19 477.54 L 719.55 468.36 L 723.61 458.47 L 723.61 458.47 L 727.29 447.93 L 730.55 436.82 L 733.36 425.10 L 735.72 412.73 L 737.59 399.69 L 738.97 385.92 L 739.81 371.40 L 740.10 356.08 L 740.10 356.08 L 739.81 340.59 L 738.97 325.94 L 737.61 312.09 L 735.76 299.00 L 733.43 286.62 L 730.65 274.93 L 727.45 263.88 L 723.82 253.43 L 723.82 253.43 L 719.82 243.62 L 715.52 234.50 L 710.91 226.03 L 706.01 218.18 L 700.82 210.91 L 695.34 204.20 L 689.58 198.01 L 683.52 192.32 L 677.16 187.11 L 677.16 187.11 L 670.31 182.28 L 663.23 178.03 L 655.89 174.35 L 648.27 171.22 L 640.35 168.64 L 632.10 166.61 L 623.49 165.14 L 614.51 164.25 L 605.10 163.94 L 605.10 163.94 L 548.23 163.94 Z" fill="#000000" fill-rule="evenodd" node-id="242" stroke="none" target-height="383.75992" target-width="270.42664" target-x="469.6715" target-y="163.94089"/></clipPath><clipPath id="mask-19" node-id="138"><path d="M 619.66 469.31 L 624.08 530.58 L 647.51 512.58 L 641.39 405.67 Z" fill="#000000" fill-rule="evenodd" node-id="249" stroke="none" target-height="124.90515" target-width="27.850098" target-x="619.6639" target-y="405.67035"/></clipPath></defs><g node-id="377"><g node-id="378"><g node-id="379"><path d="M 308.73 59.72 L 308.48 63.24 L 307.81 66.55 L 306.72 69.68 L 305.22 72.66 L 303.40 75.36 L 301.23 77.82 L 298.77 79.99 L 296.07 81.81 L 293.09 83.31 L 289.96 84.40 L 286.65 85.07 L 283.13 85.32 L 279.62 85.07 L 276.31 84.40 L 273.17 83.31 L 270.20 81.81 L 267.49 79.99 L 265.03 77.82 L 262.86 75.36 L 261.04 72.66 L 259.55 69.68 L 258.45 66.55 L 257.78 63.24 L 257.53 59.72 L 257.78 56.20 L 258.45 52.89 L 259.55 49.76 L 261.04 46.79 L 262.86 44.08 L 265.03 41.62 L 267.49 39.45 L 270.20 37.63 L 273.17 36.14 L 276.31 35.04 L 279.62 34.37 L 283.13 34.12 L 286.65 34.37 L 289.96 35.04 L 293.09 36.14 L 296.07 37.63 L 298.77 39.45 L 301.23 41.62 L 303.40 44.08 L 305.22 46.79 L 306.72 49.76 L 307.81 52.89 L 308.48 56.20 L 308.73 59.72" fill="#c3e4ff" fill-rule="evenodd" group-id="1,2,3" id="Fill-1" node-id="31" stroke="none" target-height="51.19445" target-width="51.193787" target-x="257.53433" target-y="34.123802"/><path d="M 1024.09 329.12 L 1023.85 332.64 L 1023.18 335.95 L 1022.08 339.08 L 1020.59 342.06 L 1018.76 344.76 L 1016.60 347.22 L 1014.14 349.39 L 1011.43 351.21 L 1008.46 352.71 L 1005.32 353.80 L 1002.01 354.47 L 998.50 354.72 L 994.98 354.47 L 991.67 353.80 L 988.53 352.71 L 985.56 351.21 L 982.86 349.39 L 980.40 347.22 L 978.23 344.76 L 976.41 342.06 L 974.91 339.08 L 973.82 335.95 L 973.14 332.64 L 972.90 329.12 L 973.14 325.60 L 973.82 322.29 L 974.91 319.16 L 976.41 316.19 L 978.23 313.48 L 980.40 311.02 L 982.86 308.85 L 985.56 307.03 L 988.53 305.53 L 991.67 304.44 L 994.98 303.77 L 998.50 303.52 L 1002.01 303.77 L 1005.32 304.44 L 1008.46 305.53 L 1011.43 307.03 L 1014.14 308.85 L 1016.60 311.02 L 1018.76 313.48 L 1020.59 316.19 L 1022.08 319.16 L 1023.18 322.29 L 1023.85 325.60 L 1024.09 329.12" fill="#c3e4ff" fill-rule="evenodd" group-id="1,2,3" id="Fill-3" node-id="32" stroke="none" target-height="51.193787" target-width="51.193726" target-x="972.9011" target-y="303.52338"/><path d="M 1145.85 59.72 L 1145.61 63.24 L 1144.94 66.55 L 1143.84 69.68 L 1142.35 72.66 L 1140.52 75.36 L 1138.36 77.82 L 1135.90 79.99 L 1133.19 81.81 L 1130.22 83.31 L 1127.08 84.40 L 1123.77 85.07 L 1120.26 85.32 L 1116.74 85.07 L 1113.43 84.40 L 1110.29 83.31 L 1107.32 81.81 L 1104.62 79.99 L 1102.16 77.82 L 1099.99 75.36 L 1098.17 72.66 L 1096.67 69.68 L 1095.58 66.55 L 1094.90 63.24 L 1094.66 59.72 L 1094.90 56.20 L 1095.58 52.89 L 1096.67 49.76 L 1098.17 46.79 L 1099.99 44.08 L 1102.16 41.62 L 1104.62 39.45 L 1107.32 37.63 L 1110.29 36.14 L 1113.43 35.04 L 1116.74 34.37 L 1120.26 34.12 L 1123.77 34.37 L 1127.08 35.04 L 1130.22 36.14 L 1133.19 37.63 L 1135.90 39.45 L 1138.36 41.62 L 1140.52 44.08 L 1142.35 46.79 L 1143.84 49.76 L 1144.94 52.89 L 1145.61 56.20 L 1145.85 59.72" fill="#d6eeff" fill-rule="evenodd" group-id="1,2,3" id="Fill-5" node-id="33" stroke="none" target-height="51.19445" target-width="51.193848" target-x="1094.6604" target-y="34.123802"/><g node-id="382"><g clip-path="url(#mask-2)" group-id="1,2,3,6" node-id="262"><path d="M 51.19 293.41 L 50.95 296.92 L 50.28 300.23 L 49.18 303.37 L 47.69 306.34 L 45.86 309.04 L 43.70 311.51 L 41.24 313.67 L 38.53 315.50 L 35.56 316.99 L 32.42 318.09 L 29.11 318.76 L 25.60 319.00 L 22.08 318.76 L 18.77 318.09 L 15.63 316.99 L 12.66 315.50 L 9.96 313.67 L 7.50 311.51 L 5.33 309.04 L 3.51 306.34 L 2.01 303.37 L 0.92 300.23 L 0.24 296.92 L -0.00 293.41 L 0.24 289.89 L 0.92 286.58 L 2.01 283.44 L 3.51 280.47 L 5.33 277.77 L 7.50 275.31 L 9.96 273.14 L 12.66 271.31 L 15.63 269.82 L 18.77 268.73 L 22.08 268.05 L 25.60 267.81 L 29.11 268.05 L 32.42 268.73 L 35.56 269.82 L 38.53 271.31 L 41.24 273.14 L 43.70 275.31 L 45.86 277.77 L 47.69 280.47 L 49.18 283.44 L 50.28 286.58 L 50.95 289.89 L 51.19 293.41" fill="#d6eeff" fill-rule="evenodd" group-id="1,2,3,6,14" id="Fill-7" node-id="38" stroke="none" target-height="51.194458" target-width="51.193794" target-x="-0.00014006" target-y="267.8085"/></g></g><path d="M 551.26 480.30 L 551.00 483.91 L 550.18 487.65 L 548.88 491.11 L 547.08 494.32 L 544.85 497.24 L 542.27 499.78 L 539.30 501.97 L 536.06 503.70 L 532.57 504.95 L 528.80 505.71 L 525.66 505.90 L 522.14 505.66 L 518.83 504.98 L 515.70 503.89 L 512.72 502.39 L 510.02 500.57 L 507.56 498.40 L 505.39 495.94 L 503.57 493.24 L 502.08 490.27 L 500.98 487.13 L 500.31 483.82 L 500.06 480.30 L 500.24 477.33 L 500.72 474.49 L 501.52 471.78 L 502.60 469.17 L 503.94 466.74 L 505.54 464.47 L 508.09 461.68 L 510.99 459.33 L 514.26 457.38 L 517.78 455.94 L 521.54 455.04 L 525.58 454.71 L 525.66 454.71 L 529.18 454.95 L 532.49 455.62 L 535.62 456.72 L 538.60 458.21 L 541.30 460.04 L 543.76 462.20 L 545.93 464.66 L 547.75 467.37 L 549.24 470.34 L 550.34 473.48 L 551.01 476.79 L 551.26 480.30" fill="#c3e4ff" fill-rule="evenodd" group-id="1,2,3" id="Fill-10" node-id="39" stroke="none" target-height="51.192383" target-width="51.19168" target-x="500.06412" target-y="454.7077"/><path d="M 551.00 483.91 L 550.18 487.65 L 548.88 491.11 L 547.08 494.32 L 544.85 497.24 L 542.27 499.78 L 539.30 501.97 L 536.06 503.70 L 532.57 504.95 L 528.80 505.71 L 528.35 503.45 L 528.19 501.07 L 528.50 497.82 L 529.31 494.83 L 530.63 492.06 L 532.41 489.55 L 534.54 487.43 L 537.04 485.65 L 539.81 484.33 L 542.80 483.51 L 546.06 483.21 L 548.60 483.39 L 551.00 483.91" fill="#d6eeff" fill-rule="evenodd" group-id="1,2,3" id="Fill-12" node-id="40" stroke="none" target-height="22.500854" target-width="22.808655" target-x="528.1948" target-y="483.21008"/><path d="M 525.66 456.11 L 525.48 458.16 L 524.99 460.05 L 524.20 461.81 L 522.82 463.78 L 521.14 465.39 L 519.10 466.68 L 516.61 467.58 L 513.87 467.90 L 511.48 467.66 L 509.29 466.98 L 507.28 465.90 L 505.54 464.47 L 508.09 461.68 L 510.99 459.33 L 514.26 457.38 L 517.78 455.94 L 521.54 455.04 L 525.58 454.71 L 525.66 456.11" fill="#d6eeff" fill-rule="evenodd" group-id="1,2,3" id="Fill-14" node-id="41" stroke="none" target-height="13.193726" target-width="20.119507" target-x="505.54022" target-y="454.70752"/><path d="M 528.20 466.33 L 528.02 467.57 L 527.58 468.63 L 526.86 469.55 L 525.94 470.27 L 524.88 470.71 L 523.64 470.89 L 522.40 470.71 L 521.34 470.27 L 520.42 469.55 L 519.70 468.63 L 519.26 467.57 L 519.08 466.33 L 519.26 465.09 L 519.70 464.03 L 520.42 463.11 L 521.34 462.39 L 522.40 461.95 L 523.64 461.78 L 524.88 461.95 L 525.94 462.39 L 526.86 463.11 L 527.58 464.03 L 528.02 465.09 L 528.20 466.33" fill="#d6eeff" fill-rule="evenodd" group-id="1,2,3" id="Fill-16" node-id="42" stroke="none" target-height="9.113037" target-width="9.112976" target-x="519.0837" target-y="461.7751"/></g><g node-id="380"><g node-id="383"><g clip-path="url(#mask-4)" group-id="1,2,4,7" node-id="274"><path d="M 274.01 281.29 L 602.34 412.90 L 617.98 373.87 L 289.65 242.26 Z" fill="url(#linearGradient-5)" fill-rule="evenodd" group-id="1,2,4,7,15" id="Fill-19" node-id="48" stroke="none" target-height="170.6407" target-width="343.97806" target-x="274.0065" target-y="242.25749"/></g></g><g node-id="384"><g clip-path="url(#mask-7)" group-id="1,2,4,8" node-id="280"><path d="M 506.61 269.22 L 779.97 378.80 L 792.76 346.89 L 519.39 237.31 Z" fill="url(#linearGradient-8)" fill-rule="evenodd" group-id="1,2,4,8,16" id="Fill-22" node-id="53" stroke="none" target-height="141.48209" target-width="286.15665" target-x="506.60587" target-y="237.31332"/></g></g><g node-id="385"><path d="M 802.32 369.24 L 800.88 372.04 L 799.08 374.42 L 796.91 376.42 L 794.43 378.02 L 791.77 379.16 L 788.90 379.84 L 785.95 380.03 L 782.99 379.69 L 779.97 378.80 L 777.17 377.36 L 774.79 375.56 L 772.80 373.39 L 771.19 370.91 L 770.05 368.25 L 769.37 365.37 L 769.18 362.43 L 769.52 359.47 L 770.42 356.45 L 771.85 353.65 L 773.65 351.27 L 775.82 349.27 L 778.30 347.67 L 780.96 346.53 L 783.84 345.84 L 786.78 345.65 L 789.74 346.00 L 792.76 346.89 L 795.57 348.33 L 797.94 350.13 L 799.94 352.30 L 801.54 354.78 L 802.68 357.44 L 803.37 360.31 L 803.56 363.26 L 803.22 366.22 L 802.32 369.24" fill="#d6eeff" fill-rule="evenodd" group-id="1,2,4,9" id="Fill-25" node-id="55" stroke="none" target-height="34.38028" target-width="34.38025" target-x="769.17804" target-y="345.65295"/><path d="M 629.68 401.21 L 628.40 403.83 L 626.87 406.15 L 625.10 408.20 L 623.06 409.99 L 620.03 411.95 L 616.77 413.34 L 613.26 414.18 L 610.56 414.42 L 607.85 414.29 L 605.12 413.79 L 602.34 412.90 L 599.72 411.62 L 597.40 410.09 L 595.35 408.32 L 593.56 406.29 L 591.60 403.25 L 590.21 399.99 L 589.36 396.48 L 589.13 393.78 L 589.26 391.07 L 589.76 388.34 L 590.65 385.56 L 591.93 382.94 L 593.45 380.62 L 595.22 378.57 L 597.26 376.78 L 600.30 374.82 L 603.55 373.43 L 607.07 372.58 L 609.77 372.35 L 612.47 372.48 L 615.20 372.98 L 617.98 373.87 L 620.61 375.15 L 622.93 376.67 L 624.97 378.45 L 626.77 380.48 L 628.73 383.52 L 630.12 386.77 L 630.96 390.29 L 631.19 392.99 L 631.06 395.69 L 630.56 398.43 L 629.68 401.21" fill="#d6eeff" fill-rule="evenodd" group-id="1,2,4,9" id="Fill-27" node-id="56" stroke="none" target-height="42.065155" target-width="42.064514" target-x="589.1299" target-y="372.35065"/><path d="M 621.40 397.89 L 620.39 399.86 L 619.12 401.54 L 617.59 402.94 L 615.84 404.07 L 613.97 404.87 L 611.94 405.36 L 609.87 405.49 L 607.79 405.25 L 605.66 404.62 L 603.68 403.61 L 602.01 402.34 L 600.60 400.81 L 599.47 399.06 L 598.67 397.19 L 598.19 395.17 L 598.05 393.09 L 598.29 391.01 L 598.93 388.88 L 599.94 386.90 L 601.20 385.23 L 602.73 383.82 L 604.48 382.69 L 606.35 381.89 L 608.38 381.41 L 610.45 381.27 L 612.54 381.52 L 614.67 382.15 L 616.64 383.16 L 618.31 384.43 L 619.72 385.95 L 620.85 387.70 L 621.65 389.58 L 622.14 391.60 L 622.27 393.67 L 622.03 395.76 L 621.40 397.89" fill="#aad5ff" fill-rule="evenodd" group-id="1,2,4,9" id="Fill-29" node-id="57" stroke="none" target-height="24.218048" target-width="24.217957" target-x="598.053" target-y="381.27435"/><path d="M 794.95 366.28 L 794.17 367.79 L 793.21 369.07 L 792.04 370.14 L 790.00 371.34 L 787.73 371.99 L 786.15 372.09 L 784.55 371.90 L 782.93 371.42 L 781.42 370.65 L 780.14 369.68 L 779.07 368.51 L 777.87 366.48 L 777.23 364.20 L 777.12 362.62 L 777.31 361.03 L 777.79 359.40 L 778.56 357.90 L 779.53 356.62 L 780.70 355.54 L 782.73 354.35 L 785.01 353.70 L 786.59 353.60 L 788.18 353.78 L 789.81 354.27 L 791.31 355.04 L 792.59 356.00 L 793.67 357.17 L 794.87 359.21 L 795.51 361.48 L 795.61 363.07 L 795.43 364.66 L 794.95 366.28" fill="#aad5ff" fill-rule="evenodd" group-id="1,2,4,9" id="Fill-31" node-id="58" stroke="none" target-height="18.488098" target-width="18.487732" target-x="777.12427" target-y="353.59906"/><path d="M 285.20 363.13 L 284.10 363.35 L 283.02 363.95 L 281.92 365.04 L 280.77 366.76 L 279.62 369.19 L 278.56 372.33 L 277.62 376.31 L 276.99 380.32 L 276.58 384.78 L 276.43 389.73 L 276.27 384.78 L 275.86 380.32 L 275.23 376.31 L 274.29 372.33 L 273.23 369.19 L 272.08 366.76 L 270.94 365.04 L 269.83 363.95 L 268.75 363.35 L 267.66 363.13 L 268.75 362.91 L 269.83 362.30 L 270.94 361.22 L 272.08 359.50 L 273.23 357.06 L 274.29 353.93 L 275.23 349.95 L 275.86 345.94 L 276.27 341.48 L 276.43 336.52 L 276.58 341.48 L 276.99 345.94 L 277.62 349.95 L 278.56 353.93 L 279.62 357.06 L 280.77 359.50 L 281.92 361.22 L 283.02 362.30 L 284.10 362.91 L 285.20 363.13" fill="#d6eeff" fill-rule="evenodd" group-id="1,2,4,9" id="Fill-33" node-id="59" stroke="none" target-height="53.207825" target-width="17.538239" target-x="267.65817" target-y="336.52463"/><path d="M 127.03 420.11 L 126.78 421.83 L 126.17 423.30 L 125.18 424.58 L 123.89 425.58 L 122.42 426.19 L 120.70 426.44 L 118.99 426.19 L 117.51 425.58 L 116.23 424.58 L 115.24 423.30 L 114.62 421.83 L 114.38 420.11 L 114.62 418.39 L 115.24 416.92 L 116.23 415.64 L 117.51 414.65 L 118.99 414.03 L 120.70 413.79 L 122.42 414.03 L 123.89 414.65 L 125.18 415.64 L 126.17 416.92 L 126.78 418.39 L 127.03 420.11" fill="#c3e4ff" fill-rule="evenodd" group-id="1,2,4,9" id="Fill-35" node-id="60" stroke="none" target-height="12.648224" target-width="12.648064" target-x="114.379395" target-y="413.78738"/><path d="M 412.88 405.49 L 412.64 407.21 L 412.02 408.68 L 411.03 409.96 L 409.75 410.96 L 408.28 411.57 L 406.56 411.82 L 404.84 411.57 L 403.37 410.96 L 402.09 409.96 L 401.09 408.68 L 400.48 407.21 L 400.23 405.49 L 400.48 403.78 L 401.09 402.30 L 402.09 401.02 L 403.37 400.03 L 404.84 399.41 L 406.56 399.17 L 408.28 399.41 L 409.75 400.03 L 411.03 401.02 L 412.02 402.30 L 412.64 403.78 L 412.88 405.49" fill="#c3e4ff" fill-rule="evenodd" group-id="1,2,4,9" id="Fill-37" node-id="61" stroke="none" target-height="12.648224" target-width="12.648071" target-x="400.23413" target-y="399.16852"/><path d="M 356.00 198.73 L 355.82 200.69 L 355.33 202.48 L 354.54 204.13 L 353.48 205.63 L 352.21 206.91 L 350.70 207.97 L 349.05 208.76 L 347.26 209.25 L 345.30 209.43 L 343.35 209.25 L 341.56 208.76 L 339.91 207.97 L 338.40 206.91 L 337.13 205.63 L 336.07 204.13 L 335.28 202.48 L 334.79 200.69 L 334.61 198.73 L 334.79 196.78 L 335.28 194.99 L 336.07 193.33 L 337.13 191.83 L 338.40 190.56 L 339.91 189.50 L 341.56 188.71 L 343.35 188.22 L 345.30 188.04 L 347.26 188.22 L 349.05 188.71 L 350.70 189.50 L 352.21 190.56 L 353.48 191.83 L 354.54 193.33 L 355.33 194.99 L 355.82 196.78 L 356.00 198.73" fill="#aad5ff" fill-rule="evenodd" group-id="1,2,4,9" id="Fill-39" node-id="62" stroke="none" target-height="21.395752" target-width="21.395477" target-x="334.6071" target-y="188.0356"/><path d="M 437.22 40.38 L 436.97 42.09 L 436.36 43.57 L 435.36 44.85 L 434.08 45.84 L 432.61 46.46 L 430.89 46.70 L 429.18 46.46 L 427.70 45.84 L 426.42 44.85 L 425.43 43.57 L 424.81 42.09 L 424.57 40.38 L 424.81 38.66 L 425.43 37.19 L 426.42 35.91 L 427.70 34.91 L 429.18 34.30 L 430.89 34.05 L 432.61 34.30 L 434.08 34.91 L 435.36 35.91 L 436.36 37.19 L 436.97 38.66 L 437.22 40.38" fill="#d6eeff" fill-rule="evenodd" group-id="1,2,4,9" id="Fill-41" node-id="63" stroke="none" target-height="12.647522" target-width="12.648071" target-x="424.5681" target-y="34.054054"/><path d="M 282.75 103.99 L 282.51 105.71 L 281.89 107.18 L 280.90 108.46 L 279.62 109.46 L 278.14 110.07 L 276.43 110.31 L 274.71 110.07 L 273.24 109.46 L 271.96 108.46 L 270.96 107.18 L 270.35 105.71 L 270.10 103.99 L 270.35 102.27 L 270.96 100.80 L 271.96 99.52 L 273.24 98.52 L 274.71 97.91 L 276.43 97.67 L 278.14 97.91 L 279.62 98.52 L 280.90 99.52 L 281.89 100.80 L 282.51 102.27 L 282.75 103.99" fill="#d6eeff" fill-rule="evenodd" group-id="1,2,4,9" id="Fill-43" node-id="64" stroke="none" target-height="12.64753" target-width="12.648041" target-x="270.10312" target-y="97.66598"/><path d="M 20.03 44.33 L 19.79 46.05 L 19.17 47.52 L 18.18 48.80 L 16.90 49.79 L 15.43 50.41 L 13.71 50.65 L 11.99 50.41 L 10.52 49.79 L 9.24 48.80 L 8.24 47.52 L 7.63 46.05 L 7.38 44.33 L 7.63 42.61 L 8.24 41.14 L 9.24 39.86 L 10.52 38.86 L 11.99 38.25 L 13.71 38.00 L 15.43 38.25 L 16.90 38.86 L 18.18 39.86 L 19.17 41.14 L 19.79 42.61 L 20.03 44.33" fill="#d6eeff" fill-rule="evenodd" group-id="1,2,4,9" id="Fill-45" node-id="65" stroke="none" target-height="12.648224" target-width="12.64806" target-x="7.3841386" target-y="38.004547"/><path d="M 1094.66 25.36 L 1094.42 27.07 L 1093.80 28.55 L 1092.81 29.83 L 1091.53 30.82 L 1090.05 31.44 L 1088.34 31.68 L 1086.62 31.44 L 1085.15 30.82 L 1083.86 29.83 L 1082.87 28.55 L 1082.26 27.07 L 1082.01 25.36 L 1082.26 23.64 L 1082.87 22.17 L 1083.86 20.89 L 1085.15 19.89 L 1086.62 19.28 L 1088.34 19.03 L 1090.05 19.28 L 1091.53 19.89 L 1092.81 20.89 L 1093.80 22.17 L 1094.42 23.64 L 1094.66 25.36" fill="#d6eeff" fill-rule="evenodd" group-id="1,2,4,9" id="Fill-47" node-id="66" stroke="none" target-height="12.647524" target-width="12.648071" target-x="1082.0126" target-y="19.03305"/><path d="M 1169.63 134.34 L 1169.39 136.05 L 1168.78 137.53 L 1167.78 138.81 L 1166.50 139.80 L 1165.03 140.42 L 1163.31 140.66 L 1161.59 140.42 L 1160.12 139.80 L 1158.84 138.81 L 1157.84 137.53 L 1157.23 136.05 L 1156.99 134.34 L 1157.23 132.62 L 1157.84 131.15 L 1158.84 129.87 L 1160.12 128.87 L 1161.59 128.26 L 1163.31 128.01 L 1165.03 128.26 L 1166.50 128.87 L 1167.78 129.87 L 1168.78 131.15 L 1169.39 132.62 L 1169.63 134.34" fill="#d6eeff" fill-rule="evenodd" group-id="1,2,4,9" id="Fill-49" node-id="67" stroke="none" target-height="12.647522" target-width="12.648071" target-x="1156.9854" target-y="128.014"/><path d="M 841.75 221.09 L 841.51 222.81 L 840.89 224.28 L 839.90 225.56 L 838.62 226.56 L 837.15 227.17 L 835.43 227.41 L 833.71 227.17 L 832.24 226.56 L 830.96 225.56 L 829.96 224.28 L 829.35 222.81 L 829.10 221.09 L 829.35 219.37 L 829.96 217.90 L 830.96 216.62 L 832.24 215.62 L 833.71 215.01 L 835.43 214.77 L 837.15 215.01 L 838.62 215.62 L 839.90 216.62 L 840.89 217.90 L 841.51 219.37 L 841.75 221.09" fill="#d6eeff" fill-rule="evenodd" group-id="1,2,4,9" id="Fill-51" node-id="68" stroke="none" target-height="12.647522" target-width="12.64801" target-x="829.1037" target-y="214.76685"/><path d="M 862.11 38.00 L 861.87 39.72 L 861.26 41.19 L 860.26 42.48 L 858.98 43.47 L 857.51 44.09 L 855.79 44.33 L 854.07 44.09 L 852.60 43.47 L 851.32 42.48 L 850.32 41.19 L 849.71 39.72 L 849.46 38.00 L 849.71 36.29 L 850.32 34.82 L 851.32 33.53 L 852.60 32.54 L 854.07 31.92 L 855.79 31.68 L 857.51 31.92 L 858.98 32.54 L 860.26 33.53 L 861.26 34.82 L 861.87 36.29 L 862.11 38.00" fill="#d6eeff" fill-rule="evenodd" group-id="1,2,4,9" id="Fill-53" node-id="69" stroke="none" target-height="12.648226" target-width="12.64801" target-x="849.46497" target-y="31.680994"/><path d="M 1132.90 425.60 L 1132.66 427.32 L 1132.05 428.79 L 1131.05 430.07 L 1129.77 431.07 L 1128.30 431.68 L 1126.58 431.93 L 1124.86 431.68 L 1123.39 431.07 L 1122.11 430.07 L 1121.11 428.79 L 1120.50 427.32 L 1120.26 425.60 L 1120.50 423.88 L 1121.11 422.41 L 1122.11 421.13 L 1123.39 420.13 L 1124.86 419.52 L 1126.58 419.28 L 1128.30 419.52 L 1129.77 420.13 L 1131.05 421.13 L 1132.05 422.41 L 1132.66 423.88 L 1132.90 425.60" fill="#c3e4ff" fill-rule="evenodd" group-id="1,2,4,9" id="Fill-55" node-id="70" stroke="none" target-height="12.648224" target-width="12.648071" target-x="1120.2568" target-y="419.27695"/><path d="M 542.44 44.33 L 541.10 44.60 L 539.75 45.38 L 538.36 46.83 L 537.22 48.55 L 536.11 50.79 L 535.02 53.66 L 533.77 58.22 L 532.77 63.78 L 532.17 69.66 L 531.94 76.18 L 531.72 69.66 L 531.12 63.78 L 530.12 58.22 L 528.87 53.66 L 527.78 50.79 L 526.67 48.55 L 525.53 46.83 L 524.14 45.38 L 522.79 44.60 L 521.45 44.33 L 522.79 44.06 L 524.14 43.27 L 525.53 41.83 L 526.67 40.11 L 527.78 37.87 L 528.87 35.00 L 530.12 30.44 L 531.12 24.87 L 531.72 19.00 L 531.94 12.47 L 532.17 19.00 L 532.77 24.87 L 533.77 30.44 L 535.02 35.00 L 536.11 37.87 L 537.22 40.11 L 538.36 41.83 L 539.75 43.27 L 541.10 44.06 L 542.44 44.33" fill="#e8f6ff" fill-rule="evenodd" group-id="1,2,4,9" id="Fill-57" node-id="71" stroke="none" target-height="63.70752" target-width="20.999084" target-x="521.44525" target-y="12.474897"/><path d="M 874.82 431.93 L 873.19 432.25 L 871.56 433.20 L 869.87 434.95 L 868.50 437.03 L 867.15 439.74 L 865.83 443.21 L 864.33 448.73 L 863.11 455.47 L 862.38 462.57 L 862.11 470.47 L 861.85 462.57 L 861.11 455.47 L 859.90 448.73 L 858.39 443.21 L 857.08 439.74 L 855.73 437.03 L 854.35 434.95 L 852.67 433.20 L 851.04 432.25 L 849.41 431.93 L 851.04 431.60 L 852.67 430.65 L 854.35 428.90 L 855.73 426.82 L 857.08 424.11 L 858.39 420.64 L 859.90 415.12 L 861.11 408.38 L 861.85 401.28 L 862.11 393.38 L 862.38 401.28 L 863.11 408.38 L 864.33 415.12 L 865.83 420.64 L 867.15 424.11 L 868.50 426.82 L 869.87 428.90 L 871.56 430.65 L 873.19 431.60 L 874.82 431.93" fill="#e8f6ff" fill-rule="evenodd" group-id="1,2,4,9" id="Fill-59" node-id="72" stroke="none" target-height="77.083374" target-width="25.408142" target-x="849.40936" target-y="393.383"/><path d="M 373.62 505.90 L 372.12 506.20 L 370.62 507.07 L 369.07 508.69 L 367.81 510.59 L 366.57 513.08 L 365.36 516.28 L 363.97 521.35 L 362.86 527.54 L 362.19 534.08 L 361.94 541.34 L 361.69 534.08 L 361.02 527.54 L 359.91 521.35 L 358.52 516.28 L 357.31 513.08 L 356.07 510.59 L 354.81 508.69 L 353.26 507.07 L 351.76 506.20 L 350.26 505.90 L 351.76 505.60 L 353.26 504.73 L 354.81 503.12 L 356.07 501.21 L 357.31 498.72 L 358.52 495.52 L 359.91 490.45 L 361.02 484.26 L 361.69 477.73 L 361.94 470.47 L 362.19 477.73 L 362.86 484.26 L 363.97 490.45 L 365.36 495.52 L 366.57 498.72 L 367.81 501.21 L 369.07 503.12 L 370.62 504.73 L 372.12 505.60 L 373.62 505.90" fill="#d6eeff" fill-rule="evenodd" group-id="1,2,4,9" id="Fill-61" node-id="73" stroke="none" target-height="70.86954" target-width="23.3591" target-x="350.26068" target-y="470.46622"/><path d="M 1163.31 289.59 L 1162.07 289.84 L 1160.84 290.53 L 1159.59 291.76 L 1158.28 293.71 L 1156.98 296.47 L 1155.78 300.04 L 1154.71 304.55 L 1153.99 309.11 L 1153.53 314.18 L 1153.35 319.80 L 1153.17 314.18 L 1152.71 309.11 L 1151.99 304.55 L 1150.92 300.04 L 1149.72 296.47 L 1148.42 293.71 L 1147.11 291.76 L 1145.86 290.53 L 1144.63 289.84 L 1143.39 289.59 L 1144.63 289.34 L 1145.86 288.65 L 1147.11 287.41 L 1148.42 285.46 L 1149.72 282.70 L 1150.92 279.14 L 1151.99 274.62 L 1152.71 270.07 L 1153.17 265.00 L 1153.35 259.37 L 1153.53 265.00 L 1153.99 270.07 L 1154.71 274.62 L 1155.78 279.14 L 1156.98 282.70 L 1158.28 285.46 L 1159.59 287.41 L 1160.84 288.65 L 1162.07 289.34 L 1163.31 289.59" fill="#d6eeff" fill-rule="evenodd" group-id="1,2,4,9" id="Fill-63" node-id="74" stroke="none" target-height="60.430786" target-width="19.91858" target-x="1143.391" target-y="259.37213"/><path d="M 668.00 527.51 L 667.79 528.98 L 667.27 530.24 L 666.42 531.34 L 665.32 532.19 L 664.06 532.71 L 662.59 532.92 L 661.12 532.71 L 659.86 532.19 L 658.77 531.34 L 657.91 530.24 L 657.39 528.98 L 657.18 527.51 L 657.39 526.04 L 657.91 524.78 L 658.77 523.69 L 659.86 522.84 L 661.12 522.31 L 662.59 522.10 L 664.06 522.31 L 665.32 522.84 L 666.42 523.69 L 667.27 524.78 L 667.79 526.04 L 668.00 527.51" fill="#d6eeff" fill-rule="evenodd" group-id="1,2,4,9" id="Fill-65" node-id="75" stroke="none" target-height="10.821106" target-width="10.81958" target-x="657.18066" target-y="522.10144"/><path d="M 596.84 149.66 L 596.56 151.71 L 595.79 153.53 L 594.59 155.08 L 593.04 156.28 L 591.23 157.05 L 589.17 157.32 L 587.12 157.05 L 585.31 156.28 L 583.76 155.08 L 582.56 153.53 L 581.79 151.71 L 581.51 149.66 L 581.79 147.61 L 582.56 145.80 L 583.76 144.24 L 585.31 143.05 L 587.12 142.28 L 589.17 142.00 L 591.23 142.28 L 593.04 143.05 L 594.59 144.24 L 595.79 145.80 L 596.56 147.61 L 596.84 149.66" fill="#d6eeff" fill-rule="evenodd" group-id="1,2,4,9" id="Fill-67" node-id="76" stroke="none" target-height="15.323395" target-width="15.323853" target-x="581.5115" target-y="142.00044"/><path d="M 476.86 111.28 L 476.67 112.56 L 476.21 113.66 L 475.47 114.62 L 474.51 115.36 L 473.41 115.82 L 472.13 116.00 L 470.85 115.82 L 469.75 115.36 L 468.79 114.62 L 468.05 113.66 L 467.59 112.56 L 467.41 111.28 L 467.59 110.00 L 468.05 108.90 L 468.79 107.94 L 469.75 107.20 L 470.85 106.74 L 472.13 106.56 L 473.41 106.74 L 474.51 107.20 L 475.47 107.94 L 476.21 108.90 L 476.67 110.00 L 476.86 111.28" fill="#c3e4ff" fill-rule="evenodd" group-id="1,2,4,9" id="Fill-69" node-id="77" stroke="none" target-height="9.448524" target-width="9.448425" target-x="467.407" target-y="106.55545"/><path d="M 675.24 51.83 L 675.00 54.36 L 674.37 56.68 L 673.34 58.82 L 671.97 60.77 L 670.32 62.42 L 668.37 63.80 L 666.22 64.82 L 663.91 65.45 L 661.38 65.69 L 658.85 65.45 L 656.53 64.82 L 654.38 63.80 L 652.43 62.42 L 650.78 60.77 L 649.41 58.82 L 648.38 56.68 L 647.75 54.36 L 647.51 51.83 L 647.75 49.30 L 648.38 46.98 L 649.41 44.83 L 650.78 42.89 L 652.43 41.24 L 654.38 39.86 L 656.53 38.83 L 658.85 38.20 L 661.38 37.97 L 663.91 38.20 L 666.22 38.83 L 668.37 39.86 L 670.32 41.24 L 671.97 42.89 L 673.34 44.83 L 674.37 46.98 L 675.00 49.30 L 675.24 51.83" fill="#d6eeff" fill-rule="evenodd" group-id="1,2,4,9" id="Fill-71" node-id="78" stroke="none" target-height="27.723705" target-width="27.722656" target-x="647.5144" target-y="37.96568"/><path d="M 1038.06 532.92 L 1037.80 534.79 L 1037.10 536.45 L 1036.01 537.86 L 1034.60 538.95 L 1032.95 539.65 L 1031.08 539.90 L 1029.21 539.65 L 1027.55 538.95 L 1026.14 537.86 L 1025.05 536.45 L 1024.35 534.79 L 1024.09 532.92 L 1024.35 531.05 L 1025.05 529.40 L 1026.14 527.99 L 1027.55 526.89 L 1029.21 526.19 L 1031.08 525.94 L 1032.95 526.19 L 1034.60 526.89 L 1036.01 527.99 L 1037.10 529.40 L 1037.80 531.05 L 1038.06 532.92" fill="#aad5ff" fill-rule="evenodd" group-id="1,2,4,9" id="Fill-73" node-id="79" stroke="none" target-height="13.9627075" target-width="13.961792" target-x="1024.0945" target-y="525.94086"/><path d="M 238.12 517.71 L 237.95 518.90 L 237.52 519.93 L 236.83 520.82 L 235.94 521.51 L 234.92 521.93 L 233.73 522.10 L 232.54 521.93 L 231.52 521.51 L 230.63 520.82 L 229.94 519.93 L 229.51 518.90 L 229.34 517.71 L 229.51 516.52 L 229.94 515.50 L 230.63 514.61 L 231.52 513.92 L 232.54 513.49 L 233.73 513.32 L 234.92 513.49 L 235.94 513.92 L 236.83 514.61 L 237.52 515.50 L 237.95 516.52 L 238.12 517.71" fill="#aad5ff" fill-rule="evenodd" group-id="1,2,4,9" id="Fill-75" node-id="80" stroke="none" target-height="8.779724" target-width="8.779617" target-x="229.34059" target-y="513.32227"/><path d="M 710.03 242.83 L 709.86 244.02 L 709.43 245.05 L 708.74 245.94 L 707.85 246.63 L 706.83 247.05 L 705.64 247.22 L 704.45 247.05 L 703.43 246.63 L 702.54 245.94 L 701.84 245.05 L 701.42 244.02 L 701.25 242.83 L 701.42 241.64 L 701.84 240.62 L 702.54 239.73 L 703.43 239.04 L 704.45 238.61 L 705.64 238.44 L 706.83 238.61 L 707.85 239.04 L 708.74 239.73 L 709.43 240.62 L 709.86 241.64 L 710.03 242.83" fill="#aad5ff" fill-rule="evenodd" group-id="1,2,4,9" id="Fill-77" node-id="81" stroke="none" target-height="8.779739" target-width="8.778931" target-x="701.2494" target-y="238.44235"/><path d="M 518.04 289.59 L 517.87 290.78 L 517.44 291.80 L 516.75 292.69 L 515.86 293.38 L 514.84 293.81 L 513.65 293.98 L 512.46 293.81 L 511.44 293.38 L 510.55 292.69 L 509.86 291.80 L 509.43 290.78 L 509.26 289.59 L 509.43 288.40 L 509.86 287.37 L 510.55 286.48 L 511.44 285.79 L 512.46 285.37 L 513.65 285.20 L 514.84 285.37 L 515.86 285.79 L 516.75 286.48 L 517.44 287.37 L 517.87 288.40 L 518.04 289.59" fill="#d6eeff" fill-rule="evenodd" group-id="1,2,4,9" id="Fill-79" node-id="82" stroke="none" target-height="8.779053" target-width="8.7789" target-x="509.26035" target-y="285.198"/><path d="M 371.73 214.10 L 371.56 215.29 L 371.14 216.32 L 370.45 217.21 L 369.56 217.90 L 368.53 218.32 L 367.34 218.49 L 366.15 218.32 L 365.13 217.90 L 364.24 217.21 L 363.55 216.32 L 363.12 215.29 L 362.95 214.10 L 363.12 212.91 L 363.55 211.89 L 364.24 211.00 L 365.13 210.31 L 366.15 209.88 L 367.34 209.71 L 368.53 209.88 L 369.56 210.31 L 370.45 211.00 L 371.14 211.89 L 371.56 212.91 L 371.73 214.10" fill="#d6eeff" fill-rule="evenodd" group-id="1,2,4,9" id="Fill-81" node-id="83" stroke="none" target-height="8.779037" target-width="8.779602" target-x="362.95267" target-y="209.71169"/><path d="M 29.99 452.02 L 29.82 453.21 L 29.39 454.24 L 28.70 455.13 L 27.81 455.82 L 26.79 456.24 L 25.60 456.41 L 24.40 456.24 L 23.38 455.82 L 22.49 455.13 L 21.80 454.24 L 21.38 453.21 L 21.21 452.02 L 21.38 450.83 L 21.80 449.81 L 22.49 448.92 L 23.38 448.23 L 24.40 447.80 L 25.60 447.63 L 26.79 447.80 L 27.81 448.23 L 28.70 448.92 L 29.39 449.81 L 29.82 450.83 L 29.99 452.02" fill="#d6eeff" fill-rule="evenodd" group-id="1,2,4,9" id="Fill-83" node-id="84" stroke="none" target-height="8.779724" target-width="8.779621" target-x="21.206806" target-y="447.631"/><path d="M 326.47 289.59 L 326.30 290.78 L 325.87 291.80 L 325.18 292.69 L 324.29 293.38 L 323.27 293.81 L 322.08 293.98 L 320.89 293.81 L 319.86 293.38 L 318.97 292.69 L 318.28 291.80 L 317.86 290.78 L 317.69 289.59 L 317.86 288.40 L 318.28 287.37 L 318.97 286.48 L 319.86 285.79 L 320.89 285.37 L 322.08 285.20 L 323.27 285.37 L 324.29 285.79 L 325.18 286.48 L 325.87 287.37 L 326.30 288.40 L 326.47 289.59" fill="#d6eeff" fill-rule="evenodd" group-id="1,2,4,9" id="Fill-85" node-id="85" stroke="none" target-height="8.779053" target-width="8.779602" target-x="317.68744" target-y="285.198"/><path d="M 137.69 319.80 L 137.48 321.25 L 136.96 322.49 L 136.13 323.57 L 135.04 324.41 L 133.80 324.93 L 132.36 325.13 L 130.91 324.93 L 129.67 324.41 L 128.59 323.57 L 127.75 322.49 L 127.23 321.25 L 127.03 319.80 L 127.23 318.36 L 127.75 317.12 L 128.59 316.03 L 129.67 315.20 L 130.91 314.68 L 132.36 314.47 L 133.80 314.68 L 135.04 315.20 L 136.13 316.03 L 136.96 317.12 L 137.48 318.36 L 137.69 319.80" fill="#d6eeff" fill-rule="evenodd" group-id="1,2,4,9" id="Fill-87" node-id="86" stroke="none" target-height="10.658661" target-width="10.658516" target-x="127.027596" target-y="314.4736"/><g node-id="393"><g clip-path="url(#mask-10)" group-id="1,2,4,9,17" node-id="319"><path d="M 122.64 222.18 L 130.30 222.89 L 137.81 223.10 L 145.19 222.80 L 152.46 222.00 L 159.68 220.73 L 166.71 219.01 L 173.55 216.86 L 180.23 214.27 L 186.73 211.24 L 192.98 207.84 L 198.99 204.06 L 204.76 199.88 L 210.26 195.35 L 215.43 190.50 L 220.30 185.31 L 224.87 179.78 L 229.06 173.97 L 232.87 167.89 L 236.30 161.53 L 239.36 154.86 L 241.96 148.03 L 244.12 140.96 L 245.82 133.64 L 247.06 126.05 L 247.78 118.38 L 247.98 110.87 L 247.68 103.49 L 246.89 96.22 L 245.61 89.00 L 243.89 81.97 L 241.74 75.13 L 239.15 68.45 L 236.13 61.95 L 232.72 55.70 L 228.94 49.69 L 224.77 43.92 L 220.23 38.42 L 215.38 33.25 L 210.19 28.38 L 204.66 23.81 L 198.85 19.62 L 192.78 15.81 L 186.41 12.38 L 179.74 9.32 L 172.91 6.72 L 165.85 4.56 L 158.52 2.86 L 150.93 1.62 L 143.26 0.90 L 135.75 0.70 L 128.37 1.00 L 121.11 1.79 L 113.88 3.07 L 106.85 4.79 L 100.01 6.94 L 93.34 9.53 L 86.83 12.55 L 80.58 15.96 L 74.58 19.74 L 68.80 23.91 L 63.31 28.45 L 58.13 33.30 L 53.26 38.49 L 48.70 44.02 L 44.50 49.83 L 40.69 55.90 L 37.26 62.27 L 34.20 68.94 L 31.60 75.77 L 29.45 82.84 L 27.75 90.16 L 26.50 97.75 L 25.79 105.42 L 25.59 112.93 L 25.89 120.31 L 26.68 127.58 L 27.95 134.80 L 29.67 141.83 L 31.82 148.67 L 34.42 155.35 L 37.44 161.85 L 40.84 168.10 L 44.62 174.10 L 48.80 179.88 L 53.33 185.37 L 58.19 190.55 L 63.37 195.42 L 68.91 199.99 L 74.71 204.18 L 80.79 207.99 L 87.15 211.42 L 93.82 214.48 L 100.65 217.08 L 107.72 219.23 L 115.04 220.94 L 122.64 222.18" fill="#d6eeff" fill-rule="evenodd" group-id="1,2,4,9,17,21" id="Fill-89" node-id="91" stroke="none" target-height="222.39153" target-width="222.3888" target-x="25.587479" target-y="0.70357287"/></g></g><path d="M 176.37 64.99 L 179.45 65.09 L 182.34 64.69 L 185.09 63.79 L 187.65 62.43 L 189.89 60.69 L 191.85 58.56 L 193.42 56.13 L 194.54 53.44 L 195.21 50.43 L 195.32 47.34 L 194.91 44.45 L 194.01 41.71 L 192.65 39.15 L 190.92 36.91 L 188.79 34.95 L 186.36 33.38 L 183.66 32.26 L 180.65 31.58 L 177.57 31.48 L 174.68 31.88 L 171.93 32.78 L 169.37 34.14 L 167.13 35.88 L 165.17 38.01 L 163.60 40.44 L 162.49 43.13 L 161.81 46.14 L 161.70 49.23 L 162.11 52.12 L 163.01 54.86 L 164.37 57.42 L 166.10 59.66 L 168.23 61.62 L 170.66 63.19 L 173.36 64.31 L 176.37 64.99" fill="#e8f6ff" fill-rule="evenodd" group-id="1,2,4,9" id="Fill-92" node-id="92" stroke="none" target-height="33.6148" target-width="33.614532" target-x="161.70322" target-y="31.477602"/><path d="M 177.60 90.73 L 179.44 90.71 L 181.07 90.26 L 182.55 89.38 L 183.77 88.17 L 184.62 86.70 L 185.11 84.93 L 185.08 83.09 L 184.63 81.45 L 183.76 79.97 L 182.54 78.75 L 181.08 77.90 L 179.30 77.41 L 177.46 77.44 L 175.83 77.89 L 174.35 78.76 L 173.13 79.98 L 172.28 81.44 L 171.79 83.22 L 171.82 85.06 L 172.26 86.69 L 173.14 88.18 L 174.35 89.40 L 175.82 90.24 L 177.60 90.73" fill="#e8f6ff" fill-rule="evenodd" group-id="1,2,4,9" id="Fill-94" node-id="93" stroke="none" target-height="13.315613" target-width="13.316132" target-x="171.79112" target-y="77.414116"/><path d="M 102.51 179.29 L 104.35 179.27 L 105.98 178.82 L 107.47 177.95 L 108.69 176.73 L 109.53 175.26 L 110.02 173.49 L 110.00 171.65 L 109.55 170.01 L 108.68 168.53 L 107.46 167.31 L 105.99 166.46 L 104.22 165.98 L 102.38 166.00 L 100.74 166.45 L 99.26 167.32 L 98.04 168.54 L 97.19 170.01 L 96.71 171.78 L 96.73 173.62 L 97.18 175.25 L 98.05 176.74 L 99.27 177.96 L 100.74 178.80 L 102.51 179.29" fill="#e8f6ff" fill-rule="evenodd" group-id="1,2,4,9" id="Fill-96" node-id="94" stroke="none" target-height="13.315628" target-width="13.316139" target-x="96.7065" target-y="165.97646"/><path d="M 66.97 130.43 L 70.87 133.31 L 74.56 135.58 L 78.05 137.29 L 81.38 138.50 L 86.05 139.60 L 90.44 140.03 L 94.60 139.84 L 98.71 139.11 L 102.59 137.98 L 106.25 136.44 L 109.76 134.56 L 113.00 132.52 L 115.96 130.31 L 120.07 126.75 L 123.36 123.45 L 126.22 120.20 L 128.07 117.86 L 129.73 115.56 L 124.42 116.96 L 119.63 117.86 L 115.30 118.33 L 111.37 118.40 L 107.31 118.09 L 103.74 117.46 L 100.62 116.54 L 97.87 115.35 L 95.24 113.78 L 93.05 112.03 L 91.26 110.09 L 89.83 107.96 L 88.74 105.62 L 88.05 103.17 L 87.74 100.57 L 87.84 97.78 L 88.33 95.09 L 89.23 92.30 L 90.61 89.40 L 92.51 86.36 L 94.64 83.63 L 97.30 80.87 L 100.54 78.08 L 104.43 75.24 L 108.37 72.81 L 112.93 70.45 L 118.19 68.17 L 124.21 65.97 L 129.37 64.00 L 133.77 61.84 L 137.49 59.50 L 140.62 57.01 L 143.52 54.10 L 145.93 51.08 L 147.90 47.94 L 149.43 44.65 L 150.96 40.01 L 151.92 35.24 L 152.31 30.29 L 152.22 25.30 L 151.75 20.32 L 150.90 15.33 L 149.09 8.01 L 146.86 1.17 L 139.68 0.76 L 132.65 0.78 L 125.76 1.24 L 118.98 2.11 L 112.31 3.41 L 104.06 5.62 L 96.12 8.39 L 88.47 11.74 L 81.08 15.67 L 73.99 20.14 L 67.31 25.09 L 61.01 30.53 L 55.09 36.46 L 50.68 41.52 L 46.60 46.82 L 42.84 52.38 L 39.39 58.21 L 36.26 64.32 L 33.52 70.57 L 31.18 77.02 L 29.23 83.69 L 27.66 90.60 L 26.50 97.76 L 25.81 105.11 L 25.58 112.33 L 25.82 119.42 L 26.52 126.41 L 27.66 133.36 L 29.21 140.14 L 31.17 146.75 L 33.53 153.21 L 35.20 150.76 L 36.58 148.48 L 37.75 146.22 L 38.56 144.27 L 39.47 141.30 L 40.31 137.89 L 42.08 131.07 L 43.28 127.91 L 44.75 125.36 L 46.00 123.95 L 47.47 122.95 L 49.20 122.32 L 51.05 122.15 L 53.37 122.48 L 56.32 123.49 L 59.11 124.90 L 62.62 127.14 L 66.97 130.43" fill="#c3e4ff" fill-rule="evenodd" group-id="1,2,4,9" id="Fill-98" node-id="95" stroke="none" target-height="152.45436" target-width="126.72487" target-x="25.583405" target-y="0.7593886"/><path d="M 122.63 222.19 L 130.30 222.90 L 137.81 223.10 L 145.19 222.80 L 152.46 222.01 L 159.69 220.73 L 166.71 219.01 L 173.55 216.86 L 180.23 214.27 L 186.74 211.25 L 192.98 207.84 L 198.99 204.06 L 204.76 199.89 L 210.26 195.35 L 215.43 190.50 L 220.30 185.31 L 224.87 179.78 L 229.06 173.97 L 232.87 167.90 L 236.31 161.53 L 239.36 154.86 L 241.96 148.03 L 244.12 140.97 L 245.82 133.65 L 247.06 126.05 L 247.83 117.51 L 247.95 109.14 L 247.45 100.92 L 246.34 92.77 L 244.66 84.84 L 242.41 77.11 L 240.90 79.29 L 238.98 81.33 L 236.71 83.00 L 233.96 84.23 L 231.97 84.69 L 229.69 84.83 L 227.07 84.61 L 224.50 84.03 L 221.52 82.95 L 218.05 81.26 L 215.01 79.83 L 212.36 78.97 L 210.06 78.58 L 208.04 78.60 L 205.99 78.99 L 204.20 79.68 L 202.63 80.69 L 201.24 82.01 L 199.74 84.11 L 198.59 86.59 L 197.79 89.51 L 197.41 92.54 L 197.42 95.73 L 197.83 99.12 L 198.64 102.44 L 199.85 105.67 L 201.50 108.85 L 203.54 111.76 L 206.01 114.37 L 208.94 116.70 L 212.81 119.60 L 216.32 122.94 L 218.38 125.42 L 220.01 127.94 L 221.24 130.51 L 222.01 133.21 L 222.17 135.85 L 221.72 138.52 L 221.00 140.37 L 219.83 142.23 L 218.12 144.13 L 215.79 146.09 L 214.19 146.98 L 212.56 147.49 L 210.85 147.65 L 209.04 147.45 L 206.66 146.76 L 204.08 145.65 L 201.25 144.03 L 197.11 141.23 L 192.62 137.90 L 183.37 131.13 L 178.53 128.12 L 173.72 125.78 L 170.40 124.65 L 167.12 124.04 L 163.86 123.93 L 161.47 124.22 L 159.05 124.91 L 156.57 126.03 L 154.02 127.63 L 151.25 129.92 L 149.07 132.15 L 147.40 134.35 L 146.19 136.52 L 145.01 139.68 L 144.42 142.85 L 144.39 146.06 L 144.82 149.27 L 145.62 152.53 L 146.79 155.83 L 148.97 160.67 L 151.51 165.44 L 156.72 174.46 L 158.97 178.75 L 160.53 182.50 L 161.21 185.00 L 161.38 187.19 L 161.11 189.13 L 160.59 190.45 L 159.71 191.68 L 158.41 192.85 L 156.60 193.95 L 153.99 194.92 L 151.61 195.31 L 149.40 195.19 L 147.23 194.65 L 145.22 193.82 L 143.34 192.67 L 140.79 190.60 L 138.68 188.40 L 136.88 186.12 L 135.68 184.37 L 134.63 182.58 L 132.44 184.41 L 130.04 186.18 L 126.44 188.53 L 122.39 190.75 L 117.48 192.88 L 114.02 194.04 L 110.34 194.89 L 106.40 195.43 L 102.45 195.54 L 98.35 195.12 L 94.07 194.12 L 91.01 193.02 L 87.88 191.48 L 84.66 189.46 L 81.33 186.90 L 78.34 184.69 L 75.29 183.04 L 72.14 181.91 L 68.87 181.30 L 65.76 181.28 L 62.74 181.83 L 60.60 182.64 L 58.63 183.80 L 56.79 185.35 L 55.08 187.32 L 61.01 193.28 L 67.38 198.78 L 74.20 203.83 L 79.55 207.27 L 85.12 210.39 L 90.91 213.21 L 96.93 215.73 L 103.06 217.88 L 109.38 219.67 L 115.90 221.11 L 122.63 222.19" fill="#c3e4ff" fill-rule="evenodd" group-id="1,2,4,9" id="Fill-100" node-id="96" stroke="none" target-height="145.98904" target-width="192.87433" target-x="55.07792" target-y="77.10906"/><path d="M 1063.51 168.58 L 1061.93 176.15 L 1059.91 183.43 L 1057.45 190.43 L 1054.55 197.17 L 1051.19 203.73 L 1047.47 209.97 L 1043.39 215.91 L 1038.93 221.55 L 1034.11 226.91 L 1029.01 231.91 L 1023.60 236.56 L 1017.89 240.87 L 1011.92 244.81 L 1005.73 248.35 L 999.32 251.50 L 992.66 254.25 L 985.85 256.57 L 978.89 258.43 L 971.77 259.85 L 964.46 260.82 L 957.14 261.31 L 949.72 261.29 L 942.19 260.77 L 934.53 259.73 L 926.96 258.15 L 919.68 256.13 L 912.68 253.67 L 905.94 250.76 L 899.38 247.41 L 893.14 243.69 L 887.20 239.61 L 881.56 235.15 L 876.20 230.33 L 871.21 225.22 L 866.56 219.82 L 862.24 214.11 L 858.30 208.14 L 854.76 201.95 L 851.62 195.53 L 848.86 188.88 L 846.55 182.07 L 844.68 175.11 L 843.26 167.98 L 842.29 160.68 L 841.80 153.35 L 841.82 145.93 L 842.34 138.40 L 843.38 130.74 L 844.96 123.17 L 846.98 115.90 L 849.44 108.90 L 852.35 102.16 L 855.70 95.59 L 859.42 89.35 L 863.50 83.42 L 867.96 77.77 L 872.78 72.42 L 877.89 67.42 L 883.29 62.77 L 889.00 58.46 L 894.97 54.51 L 901.16 50.97 L 907.58 47.83 L 914.24 45.08 L 921.04 42.76 L 928.00 40.89 L 935.13 39.47 L 942.43 38.50 L 949.76 38.02 L 957.18 38.03 L 964.71 38.56 L 972.37 39.60 L 979.94 41.17 L 987.21 43.20 L 994.21 45.66 L 1000.95 48.56 L 1007.51 51.92 L 1013.76 55.63 L 1019.69 59.72 L 1025.34 64.18 L 1030.69 68.99 L 1035.69 74.10 L 1040.34 79.50 L 1044.65 85.21 L 1048.60 91.19 L 1052.13 97.38 L 1055.28 103.79 L 1058.03 110.45 L 1060.35 117.26 L 1062.22 124.22 L 1063.64 131.34 L 1064.61 138.65 L 1065.09 145.97 L 1065.08 153.39 L 1064.55 160.92 L 1063.51 168.58" fill="#d6eeff" fill-rule="evenodd" group-id="1,2,4,9" id="Fill-102" node-id="97" stroke="none" target-height="223.29234" target-width="223.29004" target-x="841.80273" target-y="38.016308"/><path d="M 1065.11 147.06 L 1058.72 148.25 L 1050.39 149.56 L 1041.46 150.69 L 1031.08 151.65 L 1020.29 152.24 L 1008.53 152.36 L 1000.60 152.14 L 992.46 151.59 L 984.09 150.72 L 975.78 149.49 L 967.45 147.84 L 959.10 145.75 L 950.89 143.19 L 942.83 140.10 L 934.91 136.47 L 927.69 132.64 L 921.42 129.00 L 916.02 125.52 L 908.36 120.02 L 902.14 114.93 L 896.48 109.73 L 891.72 104.92 L 883.19 95.73 L 879.12 91.50 L 874.98 87.60 L 870.55 84.03 L 865.54 80.75 L 869.17 76.37 L 872.99 72.20 L 877.01 68.24 L 885.66 68.88 L 896.15 70.25 L 903.28 71.53 L 911.01 73.29 L 919.40 75.56 L 927.63 78.23 L 936.30 81.54 L 945.42 85.55 L 954.30 90.03 L 963.45 95.35 L 972.90 101.56 L 980.94 106.78 L 988.88 111.23 L 996.74 114.94 L 1004.82 118.16 L 1012.69 120.78 L 1020.38 122.83 L 1028.17 124.46 L 1035.63 125.64 L 1042.76 126.40 L 1049.93 126.85 L 1056.61 127.00 L 1062.80 126.87 L 1063.97 133.49 L 1064.75 140.21 L 1065.11 147.06" fill="#e8f6ff" fill-rule="evenodd" group-id="1,2,4,9" id="Fill-104" node-id="98" stroke="none" target-height="84.120735" target-width="199.56982" target-x="865.54236" target-y="68.24389"/><path d="M 918.03 155.45 L 913.72 156.84 L 909.55 157.85 L 903.22 158.93 L 898.74 159.45 L 893.45 159.76 L 887.25 159.82 L 881.10 159.55 L 874.22 158.82 L 866.53 157.59 L 858.96 155.90 L 850.72 153.50 L 841.75 150.31 L 841.91 143.87 L 842.45 137.35 L 843.38 130.74 L 844.96 123.16 L 846.99 115.86 L 849.48 108.83 L 858.86 118.61 L 864.39 124.08 L 870.50 129.84 L 876.85 135.48 L 883.33 140.83 L 889.95 145.77 L 896.25 149.88 L 900.57 152.28 L 904.53 154.07 L 908.18 155.32 L 911.03 155.95 L 913.59 156.16 L 915.91 155.98 L 918.03 155.45" fill="#e8f6ff" fill-rule="evenodd" group-id="1,2,4,9" id="Fill-106" node-id="99" stroke="none" target-height="50.9879" target-width="76.276306" target-x="841.7524" target-y="108.83362"/><path d="M 1057.66 189.86 L 1055.21 195.72 L 1052.47 201.36 L 1049.44 206.80 L 1046.10 212.05 L 1042.51 217.07 L 1038.66 221.87 L 1029.88 218.73 L 1019.23 215.23 L 1008.01 211.91 L 995.61 208.69 L 987.17 206.80 L 978.52 205.15 L 969.66 203.75 L 960.76 202.70 L 951.95 202.07 L 943.21 201.87 L 934.50 202.19 L 926.13 203.09 L 918.10 204.56 L 910.63 206.10 L 903.42 207.31 L 896.46 208.18 L 886.10 209.02 L 876.45 209.29 L 867.06 209.09 L 858.55 208.53 L 854.63 201.70 L 851.21 194.63 L 848.29 187.31 L 845.86 179.72 L 862.60 179.26 L 872.28 178.79 L 883.13 178.07 L 894.26 177.12 L 906.05 175.84 L 917.94 174.25 L 929.96 172.27 L 941.89 169.86 L 953.45 167.03 L 959.36 165.70 L 965.18 164.81 L 970.93 164.36 L 976.62 164.34 L 984.22 164.87 L 991.69 165.91 L 999.05 167.48 L 1006.32 169.46 L 1013.41 171.72 L 1020.31 174.24 L 1030.47 178.33 L 1039.99 182.43 L 1049.26 186.45 L 1057.66 189.86" fill="#e8f6ff" fill-rule="evenodd" group-id="1,2,4,9" id="Fill-108" node-id="100" stroke="none" target-height="57.52632" target-width="211.79773" target-x="845.8635" target-y="164.34358"/><path d="M 1019.54 239.69 L 1014.59 243.12 L 1009.47 246.28 L 1004.17 249.16 L 995.79 245.86 L 986.95 242.56 L 977.99 239.42 L 969.02 236.52 L 960.07 233.93 L 951.55 231.82 L 943.17 230.18 L 935.66 229.23 L 930.71 228.96 L 926.35 229.08 L 922.52 229.53 L 928.22 228.61 L 933.64 228.02 L 941.81 227.53 L 950.83 227.43 L 962.25 227.92 L 970.09 228.62 L 978.82 229.77 L 988.51 231.43 L 998.07 233.49 L 1008.40 236.22 L 1019.54 239.69" fill="#e8f6ff" fill-rule="evenodd" group-id="1,2,4,9" id="Fill-110" node-id="101" stroke="none" target-height="21.729218" target-width="97.026794" target-x="922.5176" target-y="227.43153"/><path d="M 1055.23 103.67 L 1048.47 103.08 L 1039.92 101.97 L 1030.92 100.38 L 1020.65 98.01 L 1013.74 96.07 L 1006.51 93.69 L 998.92 90.84 L 991.49 87.64 L 983.94 83.89 L 976.24 79.55 L 968.82 74.78 L 961.44 69.34 L 954.11 63.20 L 951.15 60.22 L 949.49 57.99 L 948.75 56.32 L 948.62 55.05 L 949.01 53.87 L 949.95 52.85 L 951.63 51.97 L 954.37 51.28 L 958.02 50.91 L 962.94 50.85 L 969.39 51.22 L 979.35 52.31 L 991.72 54.19 L 1004.73 56.54 L 1019.40 59.51 L 1025.11 63.99 L 1030.47 68.78 L 1035.49 73.89 L 1040.19 79.32 L 1044.53 85.04 L 1048.48 91.00 L 1052.04 97.21 L 1055.23 103.67" fill="#e8f6ff" fill-rule="evenodd" group-id="1,2,4,9" id="Fill-112" node-id="102" stroke="none" target-height="52.81969" target-width="106.61096" target-x="948.62036" target-y="50.85274"/><path d="M 966.01 260.66 L 958.32 261.27 L 950.53 261.32 L 942.60 260.81 L 934.53 259.73 L 926.59 258.07 L 918.97 255.91 L 911.65 253.25 L 904.52 250.08 L 897.74 246.49 L 891.27 242.46 L 885.09 238.00 L 879.28 233.17 L 873.83 227.97 L 879.93 228.47 L 887.58 229.39 L 895.64 230.71 L 904.85 232.65 L 914.28 235.14 L 924.46 238.46 L 931.22 241.04 L 938.14 244.07 L 945.24 247.55 L 952.15 251.38 L 959.07 255.75 L 966.01 260.66" fill="#e8f6ff" fill-rule="evenodd" group-id="1,2,4,9" id="Fill-114" node-id="103" stroke="none" target-height="33.348694" target-width="92.18707" target-x="873.8263" target-y="227.96964"/><path d="M 929.35 59.66 L 924.86 59.12 L 917.63 57.78 L 913.46 56.73 L 908.98 55.33 L 904.54 53.60 L 900.25 51.47 L 906.07 48.52 L 912.07 45.92 L 918.25 43.66 L 922.33 51.03 L 924.39 54.31 L 926.19 56.80 L 928.03 58.81 L 929.35 59.66" fill="#e8f6ff" fill-rule="evenodd" group-id="1,2,4,9" id="Fill-116" node-id="104" stroke="none" target-height="16.001987" target-width="29.097351" target-x="900.2483" target-y="43.656155"/><path d="M 930.16 59.72 L 929.36 59.66 L 930.16 59.72" fill="#e8f6ff" fill-rule="evenodd" group-id="1,2,4,9" id="Fill-118" node-id="105" stroke="none" target-height="0.06302643" target-width="0.8046875" target-x="929.3602" target-y="59.658005"/><path d="M 1093.63 151.13 L 1105.72 155.17 L 1116.54 159.07 L 1126.18 162.84 L 1135.74 166.92 L 1143.80 170.75 L 1150.55 174.34 L 1155.63 177.40 L 1159.73 180.22 L 1162.96 182.81 L 1165.47 185.20 L 1167.77 188.03 L 1169.12 190.54 L 1169.72 192.82 L 1169.69 194.96 L 1169.08 196.81 L 1167.95 198.60 L 1166.19 200.35 L 1163.66 202.09 L 1160.16 203.81 L 1155.97 205.33 L 1150.77 206.76 L 1144.39 208.06 L 1136.65 209.19 L 1126.64 210.17 L 1114.91 210.83 L 1101.29 211.10 L 1087.71 210.97 L 1072.72 210.46 L 1056.23 209.52 L 1039.78 208.25 L 1022.25 206.57 L 1003.58 204.45 L 984.98 202.02 L 965.63 199.17 L 945.50 195.88 L 925.43 192.26 L 906.24 188.48 L 887.89 184.56 L 869.59 180.33 L 852.50 176.06 L 836.58 171.76 L 820.72 167.14 L 806.42 162.61 L 793.57 158.20 L 780.83 153.39 L 770.00 148.86 L 760.88 144.59 L 753.97 140.94 L 748.38 137.58 L 743.96 134.50 L 740.52 131.66 L 737.80 128.88 L 735.99 126.40 L 734.92 124.15 L 734.45 122.09 L 734.50 120.14 L 735.01 118.48 L 735.95 116.87 L 737.36 115.29 L 739.37 113.72 L 742.08 112.18 L 745.40 110.74 L 749.51 109.36 L 754.55 108.07 L 760.66 106.89 L 768.59 105.78 L 777.92 104.89 L 788.79 104.29 L 799.64 104.02 L 811.68 104.04 L 825.01 104.37" fill="none" group-id="1,2,4,9" id="Stroke-120" node-id="106" stroke="#aad5ff" stroke-linecap="round" stroke-width="19.6" target-height="107.0818" target-width="435.2674" target-x="734.45087" target-y="104.01866"/></g><g node-id="386"><g node-id="394"><g clip-path="url(#mask-12)" group-id="1,2,4,10,18" node-id="342"><path d="M 1004.93 684.82 L 1004.08 684.92 L 996.07 685.15 L 970.64 685.46 L 930.41 685.74 L 877.13 685.98 L 812.56 686.18 L 738.44 686.34 L 656.53 686.43 L 568.60 686.46 L 480.66 686.43 L 398.75 686.34 L 324.63 686.18 L 260.06 685.98 L 206.78 685.74 L 166.55 685.46 L 141.12 685.15 L 133.11 684.92 L 132.26 684.82 L 133.11 684.71 L 141.12 684.49 L 166.55 684.18 L 206.78 683.90 L 260.06 683.65 L 324.63 683.45 L 398.75 683.30 L 480.66 683.20 L 568.60 683.17 L 656.53 683.20 L 738.44 683.30 L 812.56 683.45 L 877.13 683.65 L 930.41 683.90 L 970.64 684.18 L 996.07 684.49 L 1004.08 684.71 L 1004.93 684.82" fill="#757a89" fill-rule="evenodd" group-id="1,2,4,10,18,22" id="Fill-123" node-id="112" stroke="none" target-height="3.2942505" target-width="872.67554" target-x="132.25769" target-y="683.17035"/></g></g><path d="M 347.26 396.62 L 347.26 267.12 L 269.13 396.62 L 347.26 396.62 Z M 337.71 458.21 L 195.33 458.21 L 195.33 409.78 L 340.32 171.84 L 405.43 171.84 L 405.43 396.62 L 450.14 396.62 L 450.14 458.21 L 405.43 458.21 L 405.43 539.80 L 337.71 539.80 L 337.71 458.21 Z" fill="#2438b7" fill-rule="evenodd" group-id="1,2,4,10" id="Fill-126" node-id="113" stroke="none" target-height="367.96375" target-width="254.80298" target-x="195.33362" target-y="171.83879"/><path d="M 655.45 442.94 L 658.87 436.43 L 661.97 429.29 L 664.76 421.47 L 667.20 412.93 L 669.27 403.60 L 670.95 393.42 L 672.20 382.33 L 672.98 370.26 L 673.25 357.14 L 672.98 343.89 L 672.22 331.70 L 670.98 320.49 L 669.33 310.19 L 667.28 300.74 L 664.86 292.08 L 662.11 284.15 L 659.04 276.90 L 655.67 270.28 L 652.14 264.49 L 648.42 259.40 L 644.52 254.96 L 640.42 251.12 L 636.13 247.83 L 631.64 245.07 L 626.91 242.81 L 621.92 241.03 L 616.65 239.75 L 611.05 238.96 L 605.10 238.69 L 599.15 238.96 L 593.55 239.75 L 588.28 241.03 L 583.29 242.81 L 578.56 245.07 L 574.06 247.84 L 569.78 251.12 L 565.68 254.96 L 561.78 259.40 L 558.06 264.49 L 554.53 270.28 L 551.16 276.90 L 548.09 284.15 L 545.34 292.08 L 542.93 300.74 L 540.88 310.19 L 539.22 320.49 L 537.99 331.70 L 537.22 343.89 L 536.95 357.14 L 537.22 370.26 L 538.00 382.33 L 539.25 393.42 L 540.92 403.60 L 543.00 412.93 L 545.44 421.47 L 548.23 429.29 L 551.33 436.43 L 554.75 442.94 L 558.31 448.64 L 562.05 453.64 L 565.97 458.01 L 570.07 461.79 L 574.35 465.02 L 578.84 467.74 L 583.54 469.96 L 588.49 471.71 L 593.71 472.97 L 599.23 473.74 L 605.10 474.00 L 610.97 473.74 L 616.50 472.97 L 621.72 471.71 L 626.66 469.96 L 631.36 467.74 L 635.85 465.02 L 640.13 461.79 L 644.23 458.01 L 648.15 453.64 L 651.89 448.64 L 655.45 442.94 M 533.26 524.80 L 526.86 519.65 L 520.76 514.01 L 514.95 507.85 L 509.43 501.15 L 504.19 493.89 L 499.24 486.02 L 494.58 477.53 L 490.22 468.36 L 486.16 458.47 L 482.48 447.94 L 479.22 436.82 L 476.41 425.10 L 474.05 412.73 L 472.17 399.69 L 470.80 385.92 L 469.96 371.40 L 469.67 356.08 L 469.96 340.59 L 470.79 325.94 L 472.16 312.09 L 474.01 298.99 L 476.34 286.62 L 479.12 274.93 L 482.32 263.88 L 485.95 253.43 L 489.94 243.63 L 494.26 234.52 L 498.87 226.05 L 503.79 218.20 L 509.00 210.93 L 514.50 204.21 L 520.31 198.02 L 526.41 192.32 L 532.83 187.10 L 539.72 182.27 L 546.85 178.02 L 554.23 174.34 L 561.88 171.21 L 569.83 168.64 L 578.10 166.61 L 586.71 165.14 L 595.70 164.25 L 605.10 163.94 L 614.51 164.25 L 623.50 165.14 L 632.10 166.61 L 640.35 168.64 L 648.27 171.22 L 655.89 174.35 L 663.23 178.03 L 670.32 182.28 L 677.16 187.10 L 683.52 192.31 L 689.58 198.00 L 695.35 204.20 L 700.82 210.91 L 706.01 218.18 L 710.91 226.03 L 715.52 234.50 L 719.82 243.62 L 723.82 253.43 L 727.44 263.88 L 730.65 274.93 L 733.43 286.62 L 735.76 298.99 L 737.61 312.09 L 738.97 325.94 L 739.81 340.59 L 740.10 356.08 L 739.81 371.40 L 738.97 385.92 L 737.59 399.69 L 735.72 412.73 L 733.36 425.10 L 730.55 436.82 L 727.29 447.94 L 723.60 458.47 L 719.55 468.37 L 715.19 477.54 L 710.54 486.04 L 705.60 493.91 L 700.39 501.17 L 694.90 507.87 L 689.13 514.02 L 683.07 519.66 L 676.72 524.80 L 669.88 529.58 L 662.80 533.78 L 655.48 537.42 L 647.89 540.51 L 640.01 543.06 L 631.82 545.07 L 623.29 546.51 L 614.40 547.40 L 605.10 547.70 L 595.81 547.40 L 586.91 546.52 L 578.37 545.07 L 570.16 543.07 L 562.26 540.52 L 554.64 537.43 L 547.28 533.79 L 540.16 529.58 L 533.26 524.80" fill="#2438b7" fill-rule="evenodd" group-id="1,2,4,10" id="Fill-128" node-id="114" stroke="none" target-height="383.75638" target-width="270.42868" target-x="469.66983" target-y="163.94278"/><path d="M 911.55 396.62 L 911.55 267.12 L 833.42 396.62 L 911.55 396.62 Z M 902.00 458.21 L 759.63 458.21 L 759.63 409.78 L 904.61 171.84 L 969.72 171.84 L 969.72 396.62 L 1014.43 396.62 L 1014.43 458.21 L 969.72 458.21 L 969.72 539.80 L 902.00 539.80 L 902.00 458.21 Z" fill="#2438b7" fill-rule="evenodd" group-id="1,2,4,10" id="Fill-130" node-id="115" stroke="none" target-height="367.96375" target-width="254.80225" target-x="759.6271" target-y="171.83879"/><path d="M 548.23 547.70 L 605.93 547.70 L 605.93 163.94 L 548.23 163.94 Z" fill="#2438b7" fill-rule="evenodd" group-id="1,2,4,10" id="Fill-132" node-id="116" stroke="none" target-height="383.75986" target-width="57.69391" target-x="548.23364" target-y="163.93948"/><path d="M 347.26 396.62 L 347.26 267.12 L 269.13 396.62 L 347.26 396.62 Z M 337.71 458.21 L 195.33 458.21 L 195.33 409.78 L 340.32 171.84 L 405.43 171.84 L 405.43 396.62 L 450.14 396.62 L 450.14 458.21 L 405.43 458.21 L 405.43 539.80 L 337.71 539.80 L 337.71 458.21 Z" fill="#2438b7" fill-rule="evenodd" group-id="1,2,4,10" id="Fill-134" node-id="117" stroke="none" target-height="367.96375" target-width="254.80298" target-x="195.33362" target-y="171.83879"/><path d="M 911.55 396.62 L 911.55 267.12 L 833.42 396.62 L 911.55 396.62 Z M 902.00 458.21 L 759.63 458.21 L 759.63 409.78 L 904.61 171.84 L 969.72 171.84 L 969.72 396.62 L 1014.43 396.62 L 1014.43 458.21 L 969.72 458.21 L 969.72 539.80 L 902.00 539.80 L 902.00 458.21 Z" fill="#2438b7" fill-rule="evenodd" group-id="1,2,4,10" id="Fill-135" node-id="118" stroke="none" target-height="367.96375" target-width="254.80225" target-x="759.6271" target-y="171.83879"/></g><path d="M 913.80 539.80 L 969.72 539.80 L 969.72 458.21 L 913.80 458.21 Z" fill="url(#linearGradient-13)" fill-rule="evenodd" group-id="1,2,4" id="Fill-137" node-id="119" stroke="none" target-height="81.594055" target-width="55.915894" target-x="913.8032" target-y="458.20868"/><path d="M 349.50 539.80 L 405.42 539.80 L 405.42 458.21 L 349.50 458.21 Z" fill="url(#linearGradient-14)" fill-rule="evenodd" group-id="1,2,4" id="Fill-139" node-id="120" stroke="none" target-height="81.594055" target-width="55.91519" target-x="349.5048" target-y="458.20868"/><g clip-path="url(#mask-16)" group-id="1,2,4,11" node-id="357"><path d="M 548.23 163.94 L 548.23 177.29 L 542.97 180.25 L 537.84 183.52 L 532.83 187.11 L 532.83 187.11 L 526.41 192.32 L 520.31 198.02 L 514.51 204.21 L 509.00 210.93 L 503.79 218.20 L 498.87 226.05 L 494.25 234.52 L 489.94 243.63 L 485.95 253.43 L 485.95 253.43 L 482.32 263.88 L 479.12 274.93 L 476.34 286.62 L 474.01 299.00 L 472.16 312.09 L 470.80 325.94 L 469.96 340.59 L 469.67 356.08 L 469.67 356.08 L 469.96 371.40 L 470.80 385.92 L 472.17 399.69 L 474.05 412.73 L 476.40 425.10 L 479.22 436.82 L 482.48 447.93 L 486.16 458.47 L 486.16 458.47 L 490.22 468.35 L 494.58 477.53 L 499.24 486.02 L 504.19 493.89 L 509.43 501.15 L 514.95 507.85 L 520.76 514.01 L 526.86 519.65 L 533.27 524.80 L 533.27 524.80 L 538.14 528.26 L 543.13 531.42 L 548.23 534.29 L 548.23 534.29 L 548.23 547.70 L 605.10 547.70 L 614.40 547.40 L 623.29 546.52 L 631.82 545.07 L 640.01 543.06 L 647.89 540.52 L 655.48 537.42 L 662.80 533.78 L 669.88 529.58 L 676.72 524.80 L 676.72 524.80 L 683.07 519.66 L 689.13 514.02 L 694.90 507.87 L 700.39 501.17 L 705.60 493.91 L 710.54 486.04 L 715.19 477.54 L 719.55 468.36 L 723.61 458.47 L 723.61 458.47 L 727.29 447.93 L 730.55 436.82 L 733.36 425.10 L 735.72 412.73 L 737.59 399.69 L 738.97 385.92 L 739.81 371.40 L 740.10 356.08 L 740.10 356.08 L 739.81 340.59 L 738.97 325.94 L 737.61 312.09 L 735.76 299.00 L 733.43 286.62 L 730.65 274.93 L 727.45 263.88 L 723.82 253.43 L 723.82 253.43 L 719.82 243.62 L 715.52 234.50 L 710.91 226.03 L 706.01 218.18 L 700.82 210.91 L 695.34 204.20 L 689.58 198.01 L 683.52 192.32 L 677.16 187.11 L 677.16 187.11 L 670.31 182.28 L 663.23 178.03 L 655.89 174.35 L 648.27 171.22 L 640.35 168.64 L 632.10 166.61 L 623.49 165.14 L 614.51 164.25 L 605.10 163.94 L 605.10 163.94 L 548.23 163.94 Z" fill="url(#linearGradient-17)" fill-rule="evenodd" group-id="1,2,4,11,19" id="Fill-141" node-id="125" stroke="none" target-height="383.75992" target-width="270.42664" target-x="469.6715" target-y="163.94089"/></g><path d="M 617.34 357.13 L 617.07 370.26 L 616.29 382.33 L 615.04 393.42 L 613.36 403.60 L 611.28 412.93 L 608.84 421.47 L 606.06 429.29 L 602.95 436.43 L 599.54 442.94 L 595.98 448.64 L 592.23 453.64 L 588.31 458.00 L 584.22 461.79 L 579.93 465.02 L 575.45 467.74 L 570.75 469.96 L 565.80 471.70 L 560.58 472.97 L 555.05 473.74 L 549.18 474.00 L 543.31 473.74 L 537.79 472.97 L 532.57 471.70 L 527.62 469.96 L 522.92 467.74 L 518.44 465.02 L 514.15 461.79 L 510.06 458.01 L 506.14 453.64 L 502.40 448.64 L 498.83 442.94 L 495.42 436.43 L 492.31 429.29 L 489.53 421.47 L 487.08 412.93 L 485.01 403.60 L 483.33 393.42 L 482.08 382.33 L 481.31 370.26 L 481.04 357.13 L 481.30 343.89 L 482.07 331.70 L 483.31 320.49 L 484.96 310.19 L 487.01 300.74 L 489.43 292.08 L 492.18 284.15 L 495.24 276.90 L 498.61 270.28 L 502.14 264.49 L 505.86 259.40 L 509.77 254.96 L 513.86 251.12 L 518.15 247.83 L 522.65 245.07 L 527.38 242.81 L 532.36 241.03 L 537.64 239.75 L 543.23 238.96 L 549.18 238.69 L 555.14 238.96 L 560.73 239.75 L 566.00 241.03 L 570.99 242.81 L 575.72 245.07 L 580.22 247.83 L 584.51 251.12 L 588.60 254.96 L 592.51 259.40 L 596.23 264.49 L 599.76 270.28 L 603.13 276.90 L 606.20 284.15 L 608.95 292.08 L 611.36 300.74 L 613.41 310.19 L 615.07 320.49 L 616.30 331.70 L 617.07 343.89 L 617.34 357.13" fill="#0d0d0f" fill-rule="evenodd" group-id="1,2,4,12" id="Fill-144" node-id="127" stroke="none" target-height="235.30975" target-width="136.2987" target-x="481.03735" target-y="238.69147"/><path d="M 543.42 264.70 L 542.63 264.87 L 541.87 265.35 L 541.09 266.25 L 540.20 267.92 L 539.44 270.31 L 538.98 272.95 L 538.80 276.03 L 538.63 272.95 L 538.17 270.31 L 537.41 267.92 L 536.52 266.25 L 535.74 265.35 L 534.98 264.87 L 534.19 264.70 L 534.98 264.53 L 535.74 264.04 L 536.52 263.15 L 537.41 261.48 L 538.17 259.09 L 538.63 256.45 L 538.80 253.37 L 538.98 256.45 L 539.44 259.09 L 540.20 261.48 L 541.09 263.15 L 541.87 264.04 L 542.63 264.53 L 543.42 264.70" fill="#ffffff" fill-rule="evenodd" group-id="1,2,4,12" id="Fill-146" node-id="128" stroke="none" target-height="22.666107" target-width="9.231323" target-x="534.18994" target-y="253.3663"/><path d="M 579.10 287.63 L 577.81 287.90 L 576.55 288.70 L 575.27 290.17 L 574.27 291.89 L 573.35 294.09 L 572.55 296.86 L 571.79 301.19 L 571.51 306.26 L 571.23 301.19 L 570.47 296.86 L 569.67 294.09 L 568.75 291.89 L 567.75 290.17 L 566.48 288.70 L 565.21 287.90 L 563.92 287.63 L 565.21 287.35 L 566.48 286.55 L 567.75 285.08 L 568.75 283.36 L 569.67 281.16 L 570.47 278.40 L 571.23 274.06 L 571.51 268.99 L 571.79 274.06 L 572.55 278.40 L 573.35 281.16 L 574.27 283.36 L 575.27 285.08 L 576.55 286.55 L 577.81 287.35 L 579.10 287.63" fill="#ffffff" fill-rule="evenodd" group-id="1,2,4,12" id="Fill-148" node-id="129" stroke="none" target-height="37.274475" target-width="15.181763" target-x="563.91974" target-y="268.9886"/><path d="M 532.24 334.70 L 531.27 334.90 L 530.33 335.50 L 529.39 336.59 L 528.29 338.64 L 527.36 341.57 L 526.80 344.79 L 526.59 348.57 L 526.38 344.79 L 525.82 341.57 L 524.88 338.64 L 523.79 336.59 L 522.84 335.50 L 521.90 334.90 L 520.94 334.70 L 521.90 334.49 L 522.84 333.90 L 523.79 332.80 L 524.88 330.75 L 525.82 327.83 L 526.38 324.60 L 526.59 320.83 L 526.80 324.60 L 527.36 327.83 L 528.29 330.75 L 529.39 332.80 L 530.33 333.90 L 531.27 334.49 L 532.24 334.70" fill="#ffffff" fill-rule="evenodd" group-id="1,2,4,12" id="Fill-150" node-id="130" stroke="none" target-height="27.739105" target-width="11.297852" target-x="520.9388" target-y="320.82718"/><path d="M 600.45 337.04 L 599.61 337.30 L 598.81 338.05 L 598.02 339.50 L 597.31 342.05 L 597.02 345.46 L 596.73 342.05 L 596.01 339.50 L 595.22 338.05 L 594.42 337.30 L 593.59 337.04 L 594.42 336.77 L 595.22 336.02 L 596.01 334.57 L 596.73 332.02 L 597.02 328.61 L 597.31 332.02 L 598.02 334.57 L 598.81 336.02 L 599.61 336.77 L 600.45 337.04" fill="#ffffff" fill-rule="evenodd" group-id="1,2,4,12" id="Fill-152" node-id="131" stroke="none" target-height="16.853546" target-width="6.864319" target-x="593.586" target-y="328.6085"/><path d="M 565.10 419.32 L 563.95 419.57 L 562.83 420.28 L 561.70 421.58 L 560.40 424.02 L 559.29 427.50 L 558.62 431.35 L 558.37 435.84 L 558.12 431.35 L 557.45 427.50 L 556.34 424.02 L 555.04 421.58 L 553.91 420.28 L 552.79 419.57 L 551.64 419.32 L 552.79 419.07 L 553.91 418.37 L 555.04 417.06 L 556.34 414.62 L 557.45 411.14 L 558.12 407.29 L 558.37 402.80 L 558.62 407.29 L 559.29 411.14 L 560.40 414.62 L 561.70 417.06 L 562.83 418.37 L 563.95 419.07 L 565.10 419.32" fill="#ffffff" fill-rule="evenodd" group-id="1,2,4,12" id="Fill-154" node-id="132" stroke="none" target-height="33.046753" target-width="13.460388" target-x="551.64" target-y="402.7975"/><path d="M 509.28 379.23 L 508.40 379.42 L 507.55 379.96 L 506.68 380.96 L 505.68 382.83 L 504.83 385.50 L 504.32 388.44 L 504.13 391.89 L 503.93 388.44 L 503.42 385.50 L 502.57 382.83 L 501.57 380.96 L 500.71 379.96 L 499.85 379.42 L 498.97 379.23 L 499.85 379.04 L 500.71 378.50 L 501.57 377.50 L 502.57 375.63 L 503.42 372.96 L 503.93 370.01 L 504.13 366.57 L 504.32 370.01 L 504.83 372.96 L 505.68 375.63 L 506.68 377.50 L 507.55 378.50 L 508.40 379.04 L 509.28 379.23" fill="#ffffff" fill-rule="evenodd" group-id="1,2,4,12" id="Fill-156" node-id="133" stroke="none" target-height="25.316742" target-width="10.311157" target-x="498.97235" target-y="366.56998"/><path d="M 291.34 396.62 L 291.34 267.12 L 213.21 396.62 L 291.34 396.62 Z M 281.79 458.21 L 139.42 458.21 L 139.42 409.78 L 284.40 171.84 L 349.51 171.84 L 349.51 396.62 L 394.22 396.62 L 394.22 458.21 L 349.51 458.21 L 349.51 539.80 L 281.79 539.80 L 281.79 458.21 Z" fill="#285fd7" fill-rule="evenodd" group-id="1,2,4,12" id="Fill-158" node-id="134" stroke="none" target-height="367.9638" target-width="254.80298" target-x="139.4176" target-y="171.8388"/><path d="M 599.54 442.94 L 595.98 448.64 L 592.23 453.64 L 588.31 458.00 L 584.22 461.79 L 579.93 465.02 L 575.45 467.74 L 570.75 469.96 L 565.80 471.70 L 560.58 472.97 L 555.05 473.74 L 549.18 474.00 L 543.31 473.74 L 537.79 472.97 L 532.57 471.70 L 527.62 469.96 L 522.92 467.74 L 518.44 465.02 L 514.15 461.79 L 510.06 458.00 L 506.14 453.64 L 502.40 448.64 L 498.83 442.94 L 495.42 436.43 L 492.31 429.29 L 489.53 421.47 L 487.08 412.93 L 485.01 403.60 L 483.33 393.42 L 482.08 382.33 L 481.31 370.26 L 481.04 357.13 L 481.30 343.89 L 482.07 331.70 L 483.31 320.49 L 484.96 310.19 L 487.01 300.74 L 489.43 292.08 L 492.18 284.15 L 495.24 276.90 L 498.61 270.28 L 502.14 264.49 L 505.86 259.40 L 509.77 254.96 L 513.86 251.12 L 518.15 247.83 L 522.65 245.07 L 527.38 242.81 L 532.36 241.03 L 537.64 239.75 L 543.23 238.96 L 549.18 238.69 L 555.14 238.96 L 560.73 239.75 L 566.00 241.03 L 570.99 242.81 L 575.72 245.07 L 580.22 247.83 L 584.51 251.12 L 588.60 254.96 L 592.51 259.40 L 596.23 264.49 L 599.76 270.28 L 603.13 276.90 L 606.20 284.15 L 608.95 292.08 L 611.36 300.74 L 613.41 310.19 L 615.07 320.49 L 616.30 331.70 L 617.07 343.89 L 617.34 357.13 L 617.07 370.26 L 616.28 382.33 L 615.04 393.42 L 613.36 403.60 L 611.28 412.93 L 608.84 421.47 L 606.06 429.29 L 602.95 436.43 L 599.54 442.94 M 667.90 253.43 L 663.91 243.62 L 659.60 234.50 L 654.99 226.03 L 650.10 218.18 L 644.91 210.91 L 639.43 204.20 L 633.67 198.01 L 627.61 192.32 L 621.24 187.11 L 614.40 182.28 L 607.32 178.03 L 599.98 174.35 L 592.35 171.22 L 584.43 168.64 L 576.18 166.61 L 567.58 165.14 L 558.59 164.25 L 549.18 163.94 L 539.79 164.24 L 530.79 165.14 L 522.18 166.61 L 513.91 168.64 L 505.96 171.21 L 498.31 174.34 L 490.93 178.02 L 483.80 182.27 L 476.91 187.11 L 470.50 192.32 L 464.39 198.02 L 458.59 204.21 L 453.08 210.93 L 447.87 218.20 L 442.96 226.05 L 438.34 234.52 L 434.03 243.63 L 430.03 253.43 L 426.64 263.16 L 423.60 273.42 L 420.94 284.23 L 418.67 295.63 L 416.81 307.64 L 415.36 320.30 L 414.48 331.70 L 413.94 343.62 L 413.75 356.08 L 413.93 368.18 L 414.46 379.77 L 415.31 390.89 L 416.49 401.55 L 418.37 414.15 L 420.71 426.10 L 423.47 437.45 L 426.66 448.23 L 430.25 458.47 L 434.31 468.35 L 438.67 477.53 L 443.33 486.02 L 448.28 493.89 L 453.52 501.15 L 459.04 507.85 L 464.84 514.01 L 470.94 519.65 L 477.35 524.80 L 484.24 529.58 L 491.36 533.79 L 498.72 537.43 L 506.34 540.52 L 514.24 543.07 L 522.45 545.07 L 530.99 546.52 L 539.89 547.40 L 549.18 547.70 L 558.48 547.40 L 567.38 546.52 L 575.91 545.07 L 584.10 543.06 L 591.98 540.52 L 599.57 537.42 L 606.89 533.78 L 613.96 529.58 L 620.81 524.80 L 627.16 519.66 L 633.21 514.02 L 638.98 507.87 L 644.47 501.17 L 649.69 493.91 L 654.62 486.04 L 659.27 477.54 L 663.63 468.36 L 667.69 458.47 L 671.37 447.93 L 674.63 436.82 L 677.45 425.10 L 679.80 412.73 L 681.68 399.69 L 683.05 385.92 L 683.90 371.40 L 684.19 356.08 L 683.90 340.59 L 683.06 325.94 L 681.70 312.09 L 679.84 299.00 L 677.51 286.62 L 674.74 274.93 L 671.53 263.88 L 667.90 253.43" fill="#285fd7" fill-rule="evenodd" group-id="1,2,4,12" id="Fill-160" node-id="135" stroke="none" target-height="383.76062" target-width="270.43292" target-x="413.7527" target-y="163.94069"/><path d="M 855.64 396.62 L 855.64 267.12 L 777.50 396.62 L 855.64 396.62 Z M 846.09 458.21 L 703.71 458.21 L 703.71 409.78 L 848.69 171.84 L 913.80 171.84 L 913.80 396.62 L 958.51 396.62 L 958.51 458.21 L 913.80 458.21 L 913.80 539.80 L 846.09 539.80 L 846.09 458.21 Z" fill="#285fd7" fill-rule="evenodd" group-id="1,2,4,12" id="Fill-162" node-id="136" stroke="none" target-height="367.9638" target-width="254.80225" target-x="703.7114" target-y="171.8388"/><g clip-path="url(#mask-19)" group-id="1,2,4,13" node-id="375"><path d="M 619.66 469.31 L 624.08 530.58 L 647.51 512.58 L 641.39 405.67 Z" fill="none" group-id="1,2,4,13,20" id="Fill-165" node-id="141" stroke="none" target-height="124.90515" target-width="27.850098" target-x="619.6639" target-y="405.67035"/></g></g><g node-id="381"><path d="M 349.60 666.35 L 358.02 644.12 L 375.31 655.05 L 366.00 674.95 Z" fill="#ef3c86" fill-rule="evenodd" group-id="1,2,5" id="Fill-168" node-id="143" stroke="none" target-height="30.826721" target-width="25.718414" target-x="349.59525" target-y="644.1212"/><path d="M 350.58 663.53 L 343.24 684.66 L 417.82 684.82 L 415.21 682.47 L 412.14 680.20 L 406.90 677.01 L 403.04 675.02 L 398.17 672.93 L 392.14 670.75 L 386.02 668.98 L 378.75 667.40 L 370.16 666.06 L 350.58 663.53 Z" fill="#0b096f" fill-rule="evenodd" group-id="1,2,5" id="Fill-170" node-id="144" stroke="none" target-height="21.291382" target-width="74.571106" target-x="343.24405" target-y="663.5259"/><path d="M 402.20 424.40 L 394.37 540.12 L 345.87 658.90 L 378.54 662.82 L 432.04 557.01 L 454.73 436.53 Z" fill="#131318" fill-rule="evenodd" group-id="1,2,5" id="Fill-172" node-id="145" stroke="none" target-height="238.4198" target-width="108.86041" target-x="345.873" target-y="424.4015"/><path d="M 440.47 301.16 L 521.81 284.86 L 523.02 285.20 L 524.14 285.76 L 525.55 286.84 L 526.74 288.33 L 527.75 290.67 L 528.22 293.21 L 528.19 295.14 L 527.86 296.86 L 527.45 297.95 L 526.90 298.92 L 443.18 333.31 L 440.47 301.16 Z" fill="#ff77ca" fill-rule="evenodd" group-id="1,2,5" id="Fill-174" node-id="146" stroke="none" target-height="48.445038" target-width="87.74451" target-x="440.47284" target-y="284.86102"/><path d="M 431.78 323.60 L 482.38 338.38 L 493.40 302.82 L 504.94 307.24 L 497.45 366.57 L 426.60 354.97 Z" fill="#ff77ca" fill-rule="evenodd" group-id="1,2,5" id="Fill-176" node-id="147" stroke="none" target-height="63.746735" target-width="78.34357" target-x="426.59808" target-y="302.8232"/><path d="M 442.34 298.92 L 387.81 313.22 L 453.27 329.48 Z" fill="#fe7a00" fill-rule="evenodd" group-id="1,2,5" id="Fill-178" node-id="148" stroke="none" target-height="30.552917" target-width="65.467224" target-x="387.8059" target-y="298.92267"/><path d="M 358.36 234.19 L 362.94 245.92 L 358.82 249.00 L 348.71 242.09" fill="none" group-id="1,2,5" id="Stroke-180" node-id="149" stroke="#0b096f" stroke-linecap="butt" stroke-width="6.3" target-height="14.803757" target-width="14.230743" target-x="348.71344" target-y="234.195"/><path d="M 425.71 232.38 L 427.29 233.70 L 428.82 235.14 L 430.79 237.24 L 432.67 239.62 L 434.38 242.39 L 435.30 244.38 L 435.91 246.42 L 436.23 248.54 L 436.16 250.66 L 435.60 252.82 L 434.50 255.08 L 432.97 257.08 L 430.65 259.18 L 427.35 261.38 L 425.71 232.38 Z" fill="#0b096f" fill-rule="evenodd" group-id="1,2,5" id="Fill-182" node-id="150" stroke="none" target-height="29.003876" target-width="10.516998" target-x="425.7143" target-y="232.38058"/><path d="M 376.38 276.32 L 375.18 275.14 L 373.18 274.06 L 370.85 273.34 L 368.13 272.94 L 365.35 272.98 L 362.65 273.50 L 360.96 274.16 L 359.48 275.09 L 358.18 276.30 L 357.18 277.74 L 356.49 279.57 L 356.13 281.86 L 356.29 284.35 L 356.91 286.47 L 357.95 288.32 L 359.36 289.96 L 361.05 291.40 L 363.07 292.65 L 366.34 294.14 L 369.87 295.27 L 373.45 296.09 L 376.73 296.62 L 382.04 297.11 L 384.17 297.18 L 388.88 317.95 L 414.50 314.63 L 409.54 296.35 L 412.09 295.83 L 418.35 294.43 L 426.17 292.44 L 430.10 291.26 L 433.44 290.10 L 436.40 288.78 L 438.04 287.68 L 437.70 285.04 L 436.59 278.17 L 434.57 268.66 L 433.19 263.44 L 431.51 258.09 L 429.53 252.86 L 427.27 248.04 L 402.90 235.82 L 372.07 246.85 L 376.38 276.32 Z" fill="#ff77ca" fill-rule="evenodd" group-id="1,2,5" id="Fill-184" node-id="151" stroke="none" target-height="82.13045" target-width="81.90109" target-x="356.134" target-y="235.82426"/><path d="M 362.38 273.60 L 360.71 273.20 L 359.14 272.58 L 357.21 271.40 L 356.05 270.38 L 355.02 269.02 L 354.11 267.27 L 353.57 265.38 L 353.39 262.96 L 353.66 259.87 L 354.36 256.84 L 355.78 253.03 L 358.09 248.27 L 360.86 243.76 L 363.56 240.19 L 366.21 237.42 L 369.17 234.95 L 371.94 233.10 L 374.56 231.79 L 378.59 230.39 L 381.97 229.77 L 385.13 229.61 L 387.27 229.75 L 389.30 230.10 L 389.32 227.99 L 389.84 222.84 L 390.48 219.72 L 391.51 216.41 L 392.99 213.26 L 395.00 210.45 L 396.65 208.88 L 398.63 207.64 L 400.98 206.73 L 403.93 206.21 L 406.64 206.20 L 409.18 206.66 L 411.62 207.54 L 413.91 208.72 L 416.06 210.22 L 419.00 212.85 L 421.56 215.77 L 423.80 218.87 L 425.58 221.73 L 428.06 226.48 L 428.90 228.42 L 429.44 226.63 L 430.95 222.39 L 431.99 219.88 L 433.22 217.38 L 434.63 215.06 L 436.08 213.31 L 437.19 212.40 L 438.26 211.95 L 439.33 211.86 L 440.06 212.19 L 440.92 213.08 L 441.96 214.84 L 442.72 216.72 L 443.36 219.06 L 443.85 221.97 L 444.03 224.88 L 443.86 228.03 L 443.29 231.45 L 442.30 234.75 L 440.74 238.09 L 438.54 241.50 L 436.62 243.80 L 434.24 246.03 L 431.35 248.21 L 427.88 250.34 L 424.37 252.05 L 420.21 253.60 L 415.31 254.99 L 409.57 256.17 L 404.06 256.92 L 397.68 257.37 L 390.33 257.48 L 381.91 257.20 L 382.80 258.50 L 383.57 259.88 L 384.37 261.85 L 384.88 264.02 L 384.94 266.47 L 384.65 268.10 L 383.97 269.78 L 382.84 271.56 L 381.41 273.10 L 379.31 274.68 L 376.38 276.31 L 375.54 275.57 L 374.57 274.90 L 372.98 274.09 L 371.12 273.47 L 368.62 273.05 L 365.87 273.04 L 362.38 273.60" fill="#0b096f" fill-rule="evenodd" group-id="1,2,5" id="Fill-186" node-id="152" stroke="none" target-height="70.11528" target-width="90.64865" target-x="353.3851" target-y="206.19969"/><path d="M 411.22 284.98 L 411.04 283.81 L 411.45 282.49 L 412.35 281.26 L 413.77 280.11 L 415.50 279.26 L 417.63 278.75 L 419.83 278.70 L 421.71 278.99 L 423.32 279.58 L 424.78 280.47 L 425.84 281.49 L 426.56 282.63 L 426.92 283.88 L 426.85 285.10 L 426.32 286.35 L 425.37 287.35 L 424.31 287.79 L 423.11 287.86 L 421.76 287.68 L 418.92 287.07 L 417.48 286.89 L 416.07 286.98 L 414.56 287.06 L 413.18 286.76 L 412.02 286.06 L 411.22 284.98" fill="#ffffff" fill-rule="evenodd" group-id="1,2,5" id="Fill-188" node-id="153" stroke="none" target-height="9.164825" target-width="15.881073" target-x="411.03906" target-y="278.6979"/><path d="M 409.54 296.35 L 392.99 297.32 L 411.44 303.52 Z" fill="#ef3c86" fill-rule="evenodd" group-id="1,2,5" id="Fill-190" node-id="154" stroke="none" target-height="7.17395" target-width="18.450745" target-x="392.98865" target-y="296.34952"/><path d="M 421.09 263.32 L 430.13 275.02 L 423.69 276.89 Z" fill="#285fd7" fill-rule="evenodd" group-id="1,2,5" id="Fill-192" node-id="155" stroke="none" target-height="13.576111" target-width="9.048553" target-x="421.0854" target-y="263.31512"/><path d="M 460.13 326.34 L 442.93 300.56 L 452.51 329.48 Z" fill="#ef3c86" fill-rule="evenodd" group-id="1,2,5" id="Fill-194" node-id="156" stroke="none" target-height="28.914246" target-width="17.205597" target-x="442.92786" target-y="300.56116"/><path d="M 460.93 360.59 L 455.57 330.55 L 454.36 359.51 Z" fill="#ef3c86" fill-rule="evenodd" group-id="1,2,5" id="Fill-196" node-id="157" stroke="none" target-height="30.041718" target-width="6.577881" target-x="454.35608" target-y="330.5489"/><path d="M 415.69 264.98 L 416.02 266.30 L 415.83 267.57 L 415.18 268.69 L 414.10 269.51 L 412.79 269.84 L 411.51 269.66 L 410.40 269.01 L 409.57 267.93 L 409.24 266.61 L 409.43 265.33 L 410.08 264.22 L 411.16 263.40 L 412.48 263.06 L 413.75 263.25 L 414.87 263.90 L 415.69 264.98" fill="#0b096f" fill-rule="evenodd" group-id="1,2,5" id="Fill-198" node-id="158" stroke="none" target-height="6.780182" target-width="6.780365" target-x="409.24124" target-y="263.06354"/><path d="M 431.96 260.99 L 432.30 262.30 L 432.11 263.58 L 431.46 264.69 L 430.38 265.51 L 429.06 265.85 L 427.79 265.66 L 426.67 265.01 L 425.85 263.93 L 425.52 262.61 L 425.71 261.34 L 426.35 260.22 L 427.44 259.40 L 428.75 259.07 L 430.03 259.25 L 431.14 259.90 L 431.96 260.99" fill="#0b096f" fill-rule="evenodd" group-id="1,2,5" id="Fill-200" node-id="159" stroke="none" target-height="6.780487" target-width="6.7800903" target-x="425.5183" target-y="259.06686"/><path d="M 401.70 429.82 L 399.47 426.34 L 393.93 416.85 L 390.57 410.51 L 386.81 402.77 L 383.24 394.56 L 379.82 385.51 L 377.82 379.31 L 376.11 372.98 L 374.71 366.51 L 373.70 359.98 L 373.19 353.55 L 373.18 347.18 L 373.55 342.42 L 374.31 337.81 L 375.45 333.32 L 376.97 328.94 L 378.91 324.77 L 381.34 320.77 L 384.29 316.92 L 387.81 313.22 L 389.30 312.25 L 391.45 311.54 L 394.49 311.15 L 399.29 311.18 L 405.34 311.81 L 411.63 312.87 L 418.46 314.31 L 425.30 315.99 L 431.96 317.79 L 443.94 321.36 L 452.52 324.15 L 455.80 325.27 L 453.83 371.94 L 442.34 369.56 L 464.49 404.32 L 476.54 435.15 L 473.05 434.44 L 463.47 432.82 L 457.05 431.94 L 449.10 431.05 L 440.70 430.36 L 431.24 429.88 L 421.52 429.77 L 411.21 430.09 L 408.72 430.10 L 405.56 430.01 L 402.85 429.88 L 401.70 429.82" fill="#ffc100" fill-rule="evenodd" group-id="1,2,5" id="Fill-202" node-id="160" stroke="none" target-height="123.99957" target-width="103.35773" target-x="373.1806" target-y="311.15002"/><path d="M 615.15 464.57 L 602.09 450.42 L 617.34 434.62 L 627.86 452.97 Z" fill="#ef3c86" fill-rule="evenodd" group-id="1,2,5" id="Fill-204" node-id="161" stroke="none" target-height="29.947174" target-width="25.770203" target-x="602.08844" target-y="434.61896"/><path d="M 619.66 430.38 L 557.62 358.45 L 555.40 356.36 L 553.02 354.66 L 550.48 353.34 L 547.77 352.36 L 545.02 351.75 L 542.20 351.51 L 539.37 351.63 L 536.60 352.12 L 533.86 352.99 L 531.26 354.21 L 528.81 355.81 L 526.50 357.81 L 464.49 404.32 L 463.60 406.12 L 462.46 407.95 L 460.36 410.65 L 457.74 413.40 L 453.87 416.65 L 451.01 418.64 L 447.50 420.70 L 443.24 422.81 L 438.87 424.60 L 433.68 426.29 L 427.57 427.85 L 421.40 429.02 L 414.24 429.91 L 405.97 430.49 L 407.14 432.85 L 408.51 435.28 L 410.72 438.75 L 413.36 442.34 L 416.83 446.38 L 419.39 448.97 L 422.29 451.50 L 425.56 453.97 L 429.02 456.16 L 432.83 458.08 L 437.03 459.73 L 441.36 460.91 L 446.11 461.63 L 451.32 461.85 L 455.17 461.63 L 459.31 461.04 L 463.76 460.02 L 468.56 458.55 L 473.00 456.62 L 478.94 453.34 L 485.12 449.45 L 492.13 444.68 L 499.23 439.58 L 506.53 434.12 L 520.52 423.22 L 532.50 413.51 L 540.87 406.55 L 544.01 403.89 L 606.72 464.71 L 619.66 430.38 Z" fill="#2d2d32" fill-rule="evenodd" group-id="1,2,5" id="Fill-206" node-id="162" stroke="none" target-height="113.2023" target-width="213.69836" target-x="405.96564" target-y="351.50647"/><path d="M 409.24 256.83 L 403.38 262.20" fill="none" group-id="1,2,5" id="Stroke-208" node-id="163" stroke="#0b096f" stroke-linecap="butt" stroke-width="4.9" target-height="5.3727417" target-width="5.8621826" target-x="403.3756" target-y="256.83078"/><path d="M 424.96 253.27 L 434.56 254.81" fill="none" group-id="1,2,5" id="Stroke-210" node-id="164" stroke="#0b096f" stroke-linecap="butt" stroke-width="4.9" target-height="1.5420837" target-width="9.600342" target-x="424.95862" target-y="253.26874"/><path d="M 615.15 464.57 L 627.86 477.91 L 641.39 405.67 L 639.71 408.14 L 635.35 415.23 L 632.60 420.12 L 629.34 426.41 L 626.12 433.19 L 622.70 441.18 L 615.15 464.57 Z" fill="#0b096f" fill-rule="evenodd" group-id="1,2,5" id="Fill-212" node-id="165" stroke="none" target-height="72.23935" target-width="26.240845" target-x="615.1504" target-y="405.6704"/><path d="M 442.34 369.56 L 414.78 362.62 L 448.82 379.73 Z" fill="#fe7a00" fill-rule="evenodd" group-id="1,2,5" id="Fill-214" node-id="166" stroke="none" target-height="17.114075" target-width="34.042145" target-x="414.7827" target-y="362.62085"/><path d="M 506.30 285.79 L 505.61 287.10 L 505.27 288.02 L 503.38 289.65 L 501.51 291.47 L 498.98 294.23 L 496.49 297.38 L 493.96 301.27 L 493.24 302.93 L 492.99 304.33 L 493.14 305.55 L 493.93 307.25 L 495.28 308.72 L 496.96 309.92 L 498.78 310.88 L 502.04 312.11 L 503.49 312.50 L 504.67 312.66 L 507.11 312.76 L 508.34 312.59 L 509.14 312.21 L 510.14 311.65 L 511.13 311.46 L 512.10 311.34 L 512.86 311.08 L 513.27 310.65 L 513.77 309.83 L 514.95 307.87 L 515.76 306.92 L 516.82 306.12 L 517.68 305.23 L 518.02 303.95 L 517.95 302.53 L 517.59 301.15 L 517.04 299.93 L 516.55 299.33 L 515.02 298.49 L 512.75 297.03 L 511.71 296.03 L 510.94 294.81 L 510.59 293.41 L 510.80 291.64 L 511.10 289.43 L 510.77 287.53 L 509.93 285.93 L 508.85 285.05 L 508.04 284.85 L 507.21 285.06 L 506.30 285.79" fill="#ff77ca" fill-rule="evenodd" group-id="1,2,5" id="Fill-216" node-id="167" stroke="none" target-height="27.913574" target-width="25.02295" target-x="492.9939" target-y="284.8507"/><path d="M 490.81 314.12 L 494.31 302.42 L 494.50 301.20 L 494.88 299.93 L 495.79 297.98 L 497.10 295.95 L 499.30 293.41 L 502.07 290.97 L 506.14 288.17" fill="none" group-id="1,2,5" id="Stroke-218" node-id="168" stroke="#ef3c86" stroke-linecap="butt" stroke-width="2.1" target-height="25.951233" target-width="15.331604" target-x="490.81317" target-y="288.16617"/><path d="M 510.61 287.10 L 511.00 288.38 L 511.06 289.86 L 510.61 292.59 L 510.51 293.84 L 510.77 294.88 L 511.37 295.77 L 512.65 296.91 L 514.15 297.84 L 516.55 299.33 L 517.41 300.47 L 517.79 301.48 L 517.96 302.60" fill="none" group-id="1,2,5" id="Stroke-220" node-id="169" stroke="#ef3c86" stroke-linecap="butt" stroke-width="2.1" target-height="15.490784" target-width="7.4431763" target-x="510.5125" target-y="287.10498"/><path d="M 504.22 313.01 L 504.94 306.65" fill="none" group-id="1,2,5" id="Stroke-222" node-id="170" stroke="#ef3c86" stroke-linecap="butt" stroke-width="2.1" target-height="6.363678" target-width="0.7240906" target-x="504.21762" target-y="306.64682"/></g></g></g></svg>