<svg width="100%" height="100%" id="svg" viewBox="0 0 1440 690" xmlns="http://www.w3.org/2000/svg" class="transition duration-300 ease-in-out delay-150"><defs><linearGradient id="gradient" x1="6%" y1="26%" x2="94%" y2="74%"><stop offset="5%" stop-color="#0693e3"></stop><stop offset="95%" stop-color="#7bdcb5"></stop></linearGradient></defs><path d="M 0,700 L 0,175 C 98.63157894736838,205.97607655502392 197.26315789473676,236.95215311004785 289,215 C 380.73684210526324,193.04784688995215 465.57894736842115,118.16746411483253 554,118 C 642.4210526315788,117.83253588516747 734.421052631579,192.377990430622 830,203 C 925.578947368421,213.622009569378 1024.7368421052631,160.32057416267943 1127,145 C 1229.2631578947369,129.67942583732057 1334.6315789473683,152.33971291866027 1440,175 L 1440,700 L 0,700 Z" stroke="none" stroke-width="0" fill="url(#gradient)" fill-opacity="0.53" class="transition-all duration-300 ease-in-out delay-150 path-0"></path><defs><linearGradient id="gradient" x1="6%" y1="26%" x2="94%" y2="74%"><stop offset="5%" stop-color="#0693e3"></stop><stop offset="95%" stop-color="#7bdcb5"></stop></linearGradient></defs><path d="M 0,700 L 0,408 C 76.44019138755979,398.10526315789474 152.88038277511959,388.2105263157895 253,403 C 353.1196172248804,417.7894736842105 476.91866028708125,457.2631578947369 588,471 C 699.0813397129187,484.7368421052631 797.4449760765552,472.7368421052631 893,447 C 988.5550239234448,421.2631578947369 1081.3014354066984,381.7894736842106 1172,373 C 1262.6985645933016,364.2105263157894 1351.349282296651,386.1052631578947 1440,408 L 1440,700 L 0,700 Z" stroke="none" stroke-width="0" fill="url(#gradient)" fill-opacity="1" class="transition-all duration-300 ease-in-out delay-150 path-1"></path></svg>