<svg width="100%" height="100%" id="svg" viewBox="0 0 1440 690" xmlns="http://www.w3.org/2000/svg" class="transition duration-300 ease-in-out delay-150"><defs><linearGradient id="gradient" x1="6%" y1="26%" x2="94%" y2="74%"><stop offset="5%" stop-color="#34495e"></stop><stop offset="95%" stop-color="#8ed1fc"></stop></linearGradient></defs><path d="M 0,700 L 0,175 C 87.55023923444975,153.64114832535884 175.1004784688995,132.28229665071768 260,139 C 344.8995215311005,145.71770334928232 427.1483253588517,180.51196172248805 528,194 C 628.8516746411483,207.48803827751195 748.3062200956939,199.66985645933013 862,174 C 975.6937799043061,148.33014354066987 1083.6267942583731,104.80861244019138 1179,102 C 1274.3732057416269,99.19138755980862 1357.1866028708134,137.0956937799043 1440,175 L 1440,700 L 0,700 Z" stroke="none" stroke-width="0" fill="url(#gradient)" fill-opacity="0.53" class="transition-all duration-300 ease-in-out delay-150 path-0"></path><defs><linearGradient id="gradient" x1="6%" y1="26%" x2="94%" y2="74%"><stop offset="5%" stop-color="#34495e"></stop><stop offset="95%" stop-color="#8ed1fc"></stop></linearGradient></defs><path d="M 0,700 L 0,408 C 108.38277511961724,370.8325358851675 216.76555023923447,333.665071770335 314,347 C 411.23444976076553,360.334928229665 497.32057416267946,424.17224880382776 598,425 C 698.6794258373205,425.82775119617224 813.9521531100477,363.6459330143541 913,361 C 1012.0478468899523,358.3540669856459 1094.8708133971293,415.24401913875596 1180,433 C 1265.1291866028707,450.75598086124404 1352.5645933014353,429.37799043062205 1440,408 L 1440,700 L 0,700 Z" stroke="none" stroke-width="0" fill="url(#gradient)" fill-opacity="1" class="transition-all duration-300 ease-in-out delay-150 path-1"></path></svg>