<svg height="179" node-id="1" sillyvg="true" template-height="179" template-width="223" version="1.1" viewBox="0 0 223 179" width="223" xmlns="http://www.w3.org/2000/svg" xmlns:xlink="http://www.w3.org/1999/xlink"><defs node-id="113"><linearGradient gradientUnits="userSpaceOnUse" id="未命名的渐变_1144" node-id="5" spreadMethod="pad" x1="189.91" x2="147.38" y1="162.81" y2="162.81"><stop offset="0" stop-color="#abff61"/><stop offset="1" stop-color="#5effc9"/></linearGradient><linearGradient gradientUnits="userSpaceOnUse" id="未命名的渐变_1144-2" node-id="8" spreadMethod="pad" x1="189.91" x2="147.38" y1="171.64" y2="171.64"><stop offset="0" stop-color="#abff61"/><stop offset="1" stop-color="#5effc9"/></linearGradient><linearGradient gradientUnits="userSpaceOnUse" id="未命名的渐变_814" node-id="9" spreadMethod="pad" x1="479.33" x2="495.87" y1="-29.38" y2="-29.38"><stop offset="0" stop-color="#5effc9"/><stop offset="1" stop-color="#abff61"/></linearGradient><linearGradient gradientUnits="userSpaceOnUse" id="未命名的渐变_814-2" node-id="12" spreadMethod="pad" x1="479.33" x2="516.31" y1="-38.2" y2="-38.2"><stop offset="0" stop-color="#5effc9"/><stop offset="1" stop-color="#abff61"/></linearGradient><linearGradient gradientUnits="userSpaceOnUse" id="未命名的渐变_104" node-id="13" spreadMethod="pad" x1="108.11" x2="108.11" y1="145.66" y2="21.5"><stop offset="0" stop-color="#6b70ff"/><stop offset="1" stop-color="#4be7ff"/></linearGradient><linearGradient gradientUnits="userSpaceOnUse" id="未命名的渐变_104-2" node-id="16" spreadMethod="pad" x1="147.33" x2="147.33" y1="145.67" y2="21.5"><stop offset="0" stop-color="#6b70ff"/><stop offset="1" stop-color="#4be7ff"/></linearGradient><linearGradient gradientUnits="userSpaceOnUse" id="未命名的渐变_104-3" node-id="17" spreadMethod="pad" x1="68.89" x2="68.89" y1="145.67" y2="21.5"><stop offset="0" stop-color="#6b70ff"/><stop offset="1" stop-color="#4be7ff"/></linearGradient><linearGradient gradientUnits="userSpaceOnUse" id="未命名的渐变_104-4" node-id="18" spreadMethod="pad" x1="113.71" x2="113.71" y1="145.66" y2="21.5"><stop offset="0" stop-color="#6b70ff"/><stop offset="1" stop-color="#4be7ff"/></linearGradient><linearGradient gradientUnits="userSpaceOnUse" id="未命名的渐变_104-7" node-id="19" spreadMethod="pad" x1="108.11" x2="108.11" y1="145.67" y2="21.5"><stop offset="0" stop-color="#6b70ff"/><stop offset="1" stop-color="#4be7ff"/></linearGradient><linearGradient gradientUnits="userSpaceOnUse" id="未命名的渐变_104-8" node-id="20" spreadMethod="pad" x1="63.28" x2="63.28" y1="145.66" y2="21.5"><stop offset="0" stop-color="#6b70ff"/><stop offset="1" stop-color="#4be7ff"/></linearGradient><linearGradient gradientUnits="userSpaceOnUse" id="未命名的渐变_104-9" node-id="21" spreadMethod="pad" x1="119.32" x2="119.32" y1="145.67" y2="21.5"><stop offset="0" stop-color="#6b70ff"/><stop offset="1" stop-color="#4be7ff"/></linearGradient><linearGradient gradientUnits="userSpaceOnUse" id="未命名的渐变_104-10" node-id="22" spreadMethod="pad" x1="150.13" x2="150.13" y1="145.67" y2="21.5"><stop offset="0" stop-color="#6b70ff"/><stop offset="1" stop-color="#4be7ff"/></linearGradient><linearGradient gradientUnits="userSpaceOnUse" id="未命名的渐变_104-11" node-id="23" spreadMethod="pad" x1="68.89" x2="68.89" y1="145.66" y2="21.5"><stop offset="0" stop-color="#6b70ff"/><stop offset="1" stop-color="#4be7ff"/></linearGradient><linearGradient gradientUnits="userSpaceOnUse" id="未命名的渐变_104-12" node-id="24" spreadMethod="pad" x1="102.51" x2="102.51" y1="145.66" y2="21.5"><stop offset="0" stop-color="#6b70ff"/><stop offset="1" stop-color="#4be7ff"/></linearGradient><linearGradient gradientUnits="userSpaceOnUse" id="未命名的渐变_104-13" node-id="25" spreadMethod="pad" x1="130.52" x2="130.52" y1="145.66" y2="21.5"><stop offset="0" stop-color="#6b70ff"/><stop offset="1" stop-color="#4be7ff"/></linearGradient><linearGradient gradientUnits="userSpaceOnUse" id="未命名的渐变_104-14" node-id="26" spreadMethod="pad" x1="88.5" x2="88.5" y1="145.67" y2="21.5"><stop offset="0" stop-color="#6b70ff"/><stop offset="1" stop-color="#4be7ff"/></linearGradient><linearGradient gradientUnits="userSpaceOnUse" id="未命名的渐变_104-15" node-id="27" spreadMethod="pad" x1="108.11" x2="108.11" y1="145.66" y2="21.5"><stop offset="0" stop-color="#6b70ff"/><stop offset="1" stop-color="#4be7ff"/></linearGradient><linearGradient gradientUnits="userSpaceOnUse" id="未命名的渐变_104-16" node-id="28" spreadMethod="pad" x1="124.92" x2="124.92" y1="145.66" y2="21.5"><stop offset="0" stop-color="#6b70ff"/><stop offset="1" stop-color="#4be7ff"/></linearGradient><linearGradient gradientUnits="userSpaceOnUse" id="未命名的渐变_104-17" node-id="29" spreadMethod="pad" x1="68.89" x2="68.89" y1="145.67" y2="21.5"><stop offset="0" stop-color="#6b70ff"/><stop offset="1" stop-color="#4be7ff"/></linearGradient><linearGradient gradientUnits="userSpaceOnUse" id="未命名的渐变_104-18" node-id="30" spreadMethod="pad" x1="130.52" x2="130.52" y1="145.67" y2="21.5"><stop offset="0" stop-color="#6b70ff"/><stop offset="1" stop-color="#4be7ff"/></linearGradient><linearGradient gradientUnits="userSpaceOnUse" id="未命名的渐变_104-19" node-id="31" spreadMethod="pad" x1="141.73" x2="141.73" y1="145.67" y2="21.5"><stop offset="0" stop-color="#6b70ff"/><stop offset="1" stop-color="#4be7ff"/></linearGradient><linearGradient gradientUnits="userSpaceOnUse" id="未命名的渐变_104-20" node-id="32" spreadMethod="pad" x1="122.12" x2="122.12" y1="145.67" y2="21.5"><stop offset="0" stop-color="#6b70ff"/><stop offset="1" stop-color="#4be7ff"/></linearGradient><linearGradient gradientUnits="userSpaceOnUse" id="未命名的渐变_104-21" node-id="33" spreadMethod="pad" x1="147.33" x2="147.33" y1="145.66" y2="21.5"><stop offset="0" stop-color="#6b70ff"/><stop offset="1" stop-color="#4be7ff"/></linearGradient><linearGradient gradientUnits="userSpaceOnUse" id="未命名的渐变_104-22" node-id="34" spreadMethod="pad" x1="164.14" x2="164.14" y1="145.67" y2="21.5"><stop offset="0" stop-color="#6b70ff"/><stop offset="1" stop-color="#4be7ff"/></linearGradient><linearGradient gradientUnits="userSpaceOnUse" id="未命名的渐变_104-24" node-id="35" spreadMethod="pad" x1="124.92" x2="124.92" y1="145.67" y2="21.5"><stop offset="0" stop-color="#6b70ff"/><stop offset="1" stop-color="#4be7ff"/></linearGradient><linearGradient gradientUnits="userSpaceOnUse" id="未命名的渐变_104-25" node-id="36" spreadMethod="pad" x1="164.14" x2="164.14" y1="145.66" y2="21.5"><stop offset="0" stop-color="#6b70ff"/><stop offset="1" stop-color="#4be7ff"/></linearGradient><linearGradient gradientUnits="userSpaceOnUse" id="未命名的渐变_104-27" node-id="37" spreadMethod="pad" x1="158.54" x2="158.54" y1="145.67" y2="21.5"><stop offset="0" stop-color="#6b70ff"/><stop offset="1" stop-color="#4be7ff"/></linearGradient><linearGradient gradientUnits="userSpaceOnUse" id="未命名的渐变_104-29" node-id="38" spreadMethod="pad" x1="144.53" x2="144.53" y1="145.67" y2="21.5"><stop offset="0" stop-color="#6b70ff"/><stop offset="1" stop-color="#4be7ff"/></linearGradient><linearGradient gradientUnits="userSpaceOnUse" id="未命名的渐变_143" node-id="39" spreadMethod="pad" x1="163.08" x2="163.08" y1="16.89" y2="194.23"><stop offset="0" stop-color="#ffd666"/><stop offset="1" stop-color="#f76cfa"/></linearGradient><linearGradient gradientUnits="userSpaceOnUse" id="未命名的渐变_104-31" node-id="42" spreadMethod="pad" x1="122.54" x2="122.54" y1="141.89" y2="35.52"><stop offset="0" stop-color="#6b70ff"/><stop offset="1" stop-color="#4be7ff"/></linearGradient><linearGradient gradientUnits="userSpaceOnUse" id="未命名的渐变_104-33" node-id="43" spreadMethod="pad" x1="166.21" x2="166.21" y1="141.89" y2="35.52"><stop offset="0" stop-color="#6b70ff"/><stop offset="1" stop-color="#4be7ff"/></linearGradient><linearGradient gradientUnits="userSpaceOnUse" id="未命名的渐变_104-35" node-id="44" spreadMethod="pad" x1="137.94" x2="137.94" y1="141.89" y2="35.52"><stop offset="0" stop-color="#6b70ff"/><stop offset="1" stop-color="#4be7ff"/></linearGradient><linearGradient gradientUnits="userSpaceOnUse" id="未命名的渐变_104-37" node-id="45" spreadMethod="pad" x1="124.09" x2="124.09" y1="141.89" y2="35.52"><stop offset="0" stop-color="#6b70ff"/><stop offset="1" stop-color="#4be7ff"/></linearGradient><linearGradient gradientUnits="userSpaceOnUse" id="未命名的渐变_104-41" node-id="46" spreadMethod="pad" x1="165.64" x2="165.64" y1="141.89" y2="35.52"><stop offset="0" stop-color="#6b70ff"/><stop offset="1" stop-color="#4be7ff"/></linearGradient><linearGradient gradientUnits="userSpaceOnUse" id="未命名的渐变_104-43" node-id="47" spreadMethod="pad" x1="175.68" x2="175.68" y1="141.89" y2="35.52"><stop offset="0" stop-color="#6b70ff"/><stop offset="1" stop-color="#4be7ff"/></linearGradient></defs><g node-id="454"><path d="M 62.91 165.50 C 62.91 168.26 60.67 170.50 57.91 170.50 C 55.15 170.50 52.91 168.26 52.91 165.50 C 52.91 162.74 55.15 160.50 57.91 160.50 C 60.67 160.50 62.91 162.74 62.91 165.50 Z" fill="#dfe8ef" fill-rule="nonzero" group-id="1" node-id="328" stroke="none" target-height="10" target-width="10" target-x="52.91" target-y="160.5"/><path d="M 61.36 165.73 L 58.86 165.73" fill="none" group-id="1" node-id="330" stroke="#dfe8ef" stroke-linecap="round" stroke-width="2" target-height="0" target-width="2.5" target-x="58.86" target-y="165.73"/><path d="M 53.16 165.73 L 46.58 165.73 C 38.48 165.73 31.91 159.16 31.91 151.06 L 31.91 120.85" fill="none" group-id="1" node-id="332" stroke="#dfe8ef" stroke-dasharray="4.75 5.7" stroke-linecap="round" stroke-width="2" target-height="44.879997" target-width="21.25" target-x="31.91" target-y="120.85"/><path d="M 31.91 118.00 L 31.91 115.50" fill="none" group-id="1" node-id="334" stroke="#dfe8ef" stroke-linecap="round" stroke-width="2" target-height="2.5" target-width="0" target-x="31.91" target-y="115.5"/><path d="M 190.09 135.78 C 190.09 138.66 187.76 140.99 184.88 140.99 C 182.00 140.99 179.67 138.66 179.67 135.78 C 179.67 132.90 182.00 130.57 184.88 130.57 C 187.76 130.57 190.09 132.90 190.09 135.78 Z" fill="#dfe8ef" fill-rule="nonzero" group-id="1" node-id="336" stroke="none" target-height="10.419998" target-width="10.419998" target-x="179.67" target-y="130.57"/><path d="M 166.91 5.00 C 166.91 7.76 164.67 10.00 161.91 10.00 C 159.15 10.00 156.91 7.76 156.91 5.00 C 156.91 2.24 159.15 0.00 161.91 0.00 C 164.67 0.00 166.91 2.24 166.91 5.00 Z" fill="#dfe8ef" fill-rule="nonzero" group-id="1" node-id="338" stroke="none" target-height="10" target-width="10" target-x="156.91" target-y="0"/><path d="M 158.46 4.77 L 160.96 4.77" fill="none" group-id="1" node-id="340" stroke="#dfe8ef" stroke-linecap="round" stroke-width="2" target-height="0" target-width="2.5" target-x="158.46" target-y="4.77"/><path d="M 166.66 4.77 L 173.23 4.77 C 177.12 4.77 180.86 6.31 183.61 9.06 C 186.36 11.81 187.91 15.55 187.91 19.44 L 187.91 49.65" fill="none" group-id="1" node-id="342" stroke="#dfe8ef" stroke-dasharray="4.75 5.7" stroke-linecap="round" stroke-width="2" target-height="44.882656" target-width="21.25" target-x="166.66" target-y="4.767347"/><path d="M 187.91 52.50 L 187.91 55.00" fill="none" group-id="1" node-id="344" stroke="#dfe8ef" stroke-linecap="round" stroke-width="2" target-height="2.5" target-width="0" target-x="187.91" target-y="52.5"/><path d="M 155.71 160.43 L 167.58 160.43 C 168.89 160.43 169.96 161.50 169.96 162.81 L 169.96 162.81 C 169.96 164.12 168.89 165.19 167.58 165.19 L 155.71 165.19 C 154.40 165.19 153.33 164.12 153.33 162.81 L 153.33 162.81 C 153.33 161.50 154.40 160.43 155.71 160.43 Z" fill="url(#未命名的渐变_1144)" fill-rule="nonzero" group-id="1" node-id="346" stroke="none" target-height="4.76001" target-width="16.630005" target-x="153.33" target-y="160.43"/><path d="M 155.71 169.25 L 187.93 169.25 C 189.24 169.25 190.31 170.32 190.31 171.63 L 190.31 171.63 C 190.31 172.94 189.24 174.01 187.93 174.01 L 155.71 174.01 C 154.40 174.01 153.33 172.94 153.33 171.63 L 153.33 171.63 C 153.33 170.32 154.40 169.25 155.71 169.25 Z" fill="url(#未命名的渐变_1144-2)" fill-rule="nonzero" group-id="1" node-id="348" stroke="none" target-height="4.7599945" target-width="36.979996" target-x="153.33" target-y="169.25"/><g node-id="455"><path d="M 34.60 32.76 L 22.73 32.76 L 21.80 32.57 L 21.05 32.06 L 20.54 31.31 L 20.35 30.38 L 20.35 30.38 L 20.54 29.45 L 21.05 28.70 L 21.80 28.19 L 22.73 28.00 L 34.60 28.00 L 35.53 28.19 L 36.28 28.70 L 36.79 29.45 L 36.98 30.38 L 36.98 30.38 L 36.79 31.31 L 36.28 32.06 L 35.53 32.57 L 34.60 32.76 Z" fill="url(#未命名的渐变_814)" fill-rule="nonzero" group-id="1,2" node-id="352" stroke="none" target-height="4.7599983" target-width="16.630001" target-x="20.349998" target-y="28"/></g><g node-id="456"><path d="M 34.60 41.59 L 2.38 41.59 L 1.45 41.40 L 0.70 40.89 L 0.19 40.14 L 0.00 39.21 L 0.00 39.21 L 0.19 38.28 L 0.70 37.53 L 1.45 37.02 L 2.38 36.83 L 34.60 36.83 L 35.53 37.02 L 36.28 37.53 L 36.79 38.28 L 36.98 39.21 L 36.98 39.21 L 36.79 40.14 L 36.28 40.89 L 35.53 41.40 L 34.60 41.59 Z" fill="url(#未命名的渐变_814-2)" fill-rule="nonzero" group-id="1,3" node-id="357" stroke="none" target-height="4.760002" target-width="36.98" target-x="0" target-y="36.83"/></g><path d="M 106.74 28.00 L 109.48 28.00 C 110.27 28.00 110.91 28.64 110.91 29.43 L 110.91 32.17 C 110.91 32.96 110.27 33.60 109.48 33.60 L 106.74 33.60 C 105.95 33.60 105.31 32.96 105.31 32.17 L 105.31 29.43 C 105.31 28.64 105.95 28.00 106.74 28.00 Z" fill="url(#未命名的渐变_104)" fill-rule="nonzero" group-id="1" node-id="360" stroke="none" target-height="5.5999985" target-width="5.600006" target-x="105.31" target-y="28"/><path d="M 129.15 28.00 C 128.36 28.00 127.72 28.64 127.72 29.43 L 127.72 65.80 C 127.73 66.59 128.36 67.22 129.15 67.22 L 165.52 67.22 C 166.30 67.21 166.93 66.58 166.94 65.80 L 166.94 29.43 C 166.94 28.64 166.31 28.01 165.52 28.00 Z M 161.34 39.21 L 161.34 60.21 C 161.34 61.00 160.70 61.64 159.91 61.64 L 134.75 61.64 C 133.96 61.64 133.32 61.00 133.32 60.21 L 133.32 35.00 C 133.32 34.21 133.96 33.57 134.75 33.57 L 159.91 33.57 C 160.70 33.57 161.34 34.21 161.34 35.00 Z" fill="url(#未命名的渐变_104-2)" fill-rule="nonzero" group-id="1" node-id="362" stroke="none" target-height="39.220016" target-width="39.220016" target-x="127.72" target-y="28"/><path d="M 60.48 44.81 L 60.48 54.59 C 60.49 55.37 61.13 56.00 61.91 56.00 L 75.91 56.00 C 76.70 55.99 77.33 55.36 77.33 54.57 L 77.33 40.57 C 77.33 39.79 76.69 39.15 75.91 39.15 L 61.91 39.15 C 61.53 39.15 61.17 39.30 60.90 39.56 C 60.63 39.83 60.48 40.19 60.48 40.57 Z" fill="url(#未命名的渐变_104-3)" fill-rule="nonzero" group-id="1" node-id="364" stroke="none" target-height="16.852741" target-width="16.850025" target-x="60.479992" target-y="39.147335"/><path d="M 112.34 44.81 L 115.09 44.81 C 115.47 44.81 115.83 44.66 116.10 44.39 C 116.36 44.12 116.51 43.76 116.51 43.38 L 116.51 35.00 C 116.51 34.62 116.36 34.26 116.10 33.99 C 115.83 33.72 115.47 33.57 115.09 33.57 L 112.34 33.57 C 111.55 33.57 110.91 34.21 110.91 35.00 L 110.91 43.35 C 110.90 43.73 111.05 44.11 111.32 44.38 C 111.59 44.66 111.96 44.81 112.34 44.81 Z" fill="url(#未命名的渐变_104-4)" fill-rule="nonzero" group-id="1" node-id="366" stroke="none" target-height="11.240093" target-width="5.610733" target-x="110.90193" target-y="33.569992"/><path d="M 155.74 50.41 L 155.74 40.63 C 155.74 40.25 155.59 39.89 155.32 39.62 C 155.05 39.36 154.69 39.21 154.31 39.21 L 140.31 39.21 C 139.53 39.21 138.89 39.85 138.89 40.63 L 138.89 54.63 C 138.92 55.41 139.57 56.02 140.35 56.00 L 154.35 56.00 C 155.14 56.00 155.78 55.36 155.78 54.57 Z" fill="url(#未命名的渐变_104-2)" fill-rule="nonzero" group-id="1" node-id="368" stroke="none" target-height="16.809677" target-width="16.89" target-x="138.89" target-y="39.207336"/><path d="M 88.50 61.62 L 88.50 29.43 C 88.50 28.64 87.86 28.00 87.07 28.00 L 50.70 28.00 C 49.91 28.01 49.28 28.64 49.28 29.43 L 49.28 65.80 C 49.29 66.58 49.92 67.21 50.70 67.22 L 87.07 67.22 C 87.86 67.22 88.49 66.59 88.50 65.80 Z M 56.31 61.62 C 55.52 61.62 54.88 60.98 54.88 60.19 L 54.88 35.00 C 54.88 34.21 55.52 33.57 56.31 33.57 L 81.47 33.57 C 82.26 33.57 82.90 34.21 82.90 35.00 L 82.90 60.19 C 82.90 60.98 82.26 61.62 81.47 61.62 Z" fill="url(#未命名的渐变_104-3)" fill-rule="nonzero" group-id="1" node-id="370" stroke="none" target-height="39.220016" target-width="39.22002" target-x="49.27998" target-y="28"/><path d="M 112.34 61.62 L 115.09 61.62 C 115.86 61.62 116.49 62.23 116.51 63.00 L 116.51 65.80 C 116.52 66.59 117.15 67.22 117.94 67.22 L 120.69 67.22 C 121.48 67.22 122.11 66.59 122.12 65.80 L 122.12 51.80 C 122.12 51.01 121.48 50.37 120.69 50.37 L 117.94 50.37 C 117.15 50.37 116.51 51.01 116.51 51.80 L 116.51 54.55 C 116.52 54.93 116.37 55.30 116.10 55.57 C 115.84 55.85 115.47 56.00 115.09 56.00 L 112.34 56.00 C 111.55 56.00 110.91 55.36 110.91 54.57 L 110.91 46.24 C 110.91 45.45 110.28 44.82 109.49 44.81 L 101.13 44.81 C 100.75 44.81 100.39 44.66 100.12 44.39 C 99.86 44.12 99.71 43.76 99.71 43.38 L 99.71 40.63 C 99.71 40.25 99.86 39.89 100.12 39.62 C 100.39 39.36 100.75 39.21 101.13 39.21 L 103.88 39.21 C 104.67 39.21 105.31 38.57 105.31 37.78 L 105.31 35.00 C 105.31 34.21 104.67 33.57 103.88 33.57 L 95.53 33.57 C 94.74 33.57 94.10 34.21 94.10 35.00 L 94.10 65.80 C 94.11 66.59 94.74 67.22 95.53 67.22 L 98.28 67.22 C 99.07 67.22 99.70 66.59 99.71 65.80 L 99.71 63.00 C 99.71 62.22 100.35 61.58 101.13 61.58 L 103.88 61.58 C 104.67 61.58 105.30 62.21 105.31 63.00 L 105.31 71.40 C 105.31 72.18 105.95 72.82 106.73 72.82 L 109.49 72.82 C 110.27 72.82 110.91 72.18 110.91 71.40 L 110.91 63.00 C 110.94 62.23 111.57 61.62 112.34 61.62 Z M 99.71 54.62 L 99.71 51.84 C 99.71 51.46 99.86 51.10 100.12 50.83 C 100.39 50.56 100.75 50.41 101.13 50.41 L 103.88 50.41 C 104.67 50.41 105.31 51.05 105.31 51.84 L 105.31 54.59 C 105.30 55.37 104.66 56.00 103.88 56.00 L 101.13 56.00 C 100.35 56.00 99.72 55.37 99.71 54.59 Z" fill="url(#未命名的渐变_104-7)" fill-rule="nonzero" group-id="1" node-id="372" stroke="none" target-height="39.25" target-width="28.020004" target-x="94.1" target-y="33.57"/><path d="M 61.91 72.82 L 64.65 72.82 C 65.44 72.82 66.08 73.46 66.08 74.25 L 66.08 76.99 C 66.08 77.78 65.44 78.42 64.65 78.42 L 61.91 78.42 C 61.12 78.42 60.48 77.78 60.48 76.99 L 60.48 74.25 C 60.48 73.46 61.12 72.82 61.91 72.82 Z" fill="url(#未命名的渐变_104-8)" fill-rule="nonzero" group-id="1" node-id="374" stroke="none" target-height="5.5999985" target-width="5.6000023" target-x="60.48" target-y="72.82"/><path d="M 127.72 77.00 L 127.72 74.25 C 127.72 73.46 127.08 72.82 126.29 72.82 L 112.29 72.82 C 111.50 72.82 110.86 73.46 110.86 74.25 L 110.86 82.60 C 110.87 82.98 111.03 83.35 111.31 83.61 C 111.59 83.87 111.96 84.01 112.34 84.00 L 120.69 84.00 C 121.48 84.00 122.12 83.36 122.12 82.57 L 122.12 79.85 C 122.13 79.07 122.76 78.44 123.54 78.43 L 126.29 78.43 C 127.08 78.43 127.72 77.79 127.72 77.00 Z" fill="url(#未命名的渐变_104-9)" fill-rule="nonzero" group-id="1" node-id="376" stroke="none" target-height="11.193466" target-width="16.86" target-x="110.86" target-y="72.82"/><path d="M 159.91 72.82 L 134.75 72.82 C 133.96 72.82 133.32 73.46 133.32 74.25 L 133.32 77.00 C 133.32 77.79 133.96 78.43 134.75 78.43 L 143.10 78.43 C 143.89 78.43 144.52 79.06 144.53 79.85 L 144.53 82.60 C 144.54 82.98 144.70 83.34 144.97 83.61 C 145.25 83.87 145.62 84.01 146.00 84.00 L 148.75 84.00 C 149.54 84.01 150.17 84.64 150.17 85.43 L 150.17 93.78 C 150.17 94.57 150.81 95.21 151.60 95.21 L 154.35 95.21 C 155.14 95.21 155.78 94.57 155.78 93.78 L 155.78 91.06 C 155.78 90.68 155.93 90.32 156.19 90.05 C 156.46 89.78 156.82 89.63 157.20 89.63 L 159.95 89.63 C 160.33 89.63 160.69 89.48 160.96 89.22 C 161.23 88.95 161.38 88.59 161.38 88.21 L 161.38 85.46 C 161.36 84.67 161.98 84.02 162.77 84.00 L 165.52 84.00 C 166.31 83.99 166.94 83.36 166.94 82.57 L 166.94 79.85 C 166.93 79.07 166.30 78.44 165.52 78.43 L 162.77 78.43 C 161.98 78.43 161.34 77.79 161.34 77.00 L 161.34 74.25 C 161.34 73.46 160.70 72.82 159.91 72.82 Z" fill="url(#未命名的渐变_104-10)" fill-rule="nonzero" group-id="1" node-id="378" stroke="none" target-height="22.39" target-width="33.62001" target-x="133.32" target-y="72.82"/><path d="M 67.52 78.43 L 70.26 78.43 C 71.05 78.43 71.69 79.07 71.69 79.86 L 71.69 82.60 C 71.69 83.39 71.05 84.03 70.26 84.03 L 67.52 84.03 C 66.73 84.03 66.09 83.39 66.09 82.60 L 66.09 79.86 C 66.09 79.07 66.73 78.43 67.52 78.43 Z" fill="url(#未命名的渐变_104-11)" fill-rule="nonzero" group-id="1" node-id="380" stroke="none" target-height="5.5999985" target-width="5.600006" target-x="66.09" target-y="78.43"/><path d="M 101.14 78.43 L 103.88 78.43 C 104.67 78.43 105.31 79.07 105.31 79.86 L 105.31 82.60 C 105.31 83.39 104.67 84.03 103.88 84.03 L 101.14 84.03 C 100.35 84.03 99.71 83.39 99.71 82.60 L 99.71 79.86 C 99.71 79.07 100.35 78.43 101.14 78.43 Z" fill="url(#未命名的渐变_104-12)" fill-rule="nonzero" group-id="1" node-id="382" stroke="none" target-height="5.5999985" target-width="5.5999985" target-x="99.71" target-y="78.43"/><path d="M 129.15 78.43 L 131.89 78.43 C 132.68 78.43 133.32 79.07 133.32 79.86 L 133.32 82.60 C 133.32 83.39 132.68 84.03 131.89 84.03 L 129.15 84.03 C 128.36 84.03 127.72 83.39 127.72 82.60 L 127.72 79.86 C 127.72 79.07 128.36 78.43 129.15 78.43 Z" fill="url(#未命名的渐变_104-13)" fill-rule="nonzero" group-id="1" node-id="384" stroke="none" target-height="5.5999985" target-width="5.600006" target-x="127.72" target-y="78.43"/><path d="M 94.10 82.60 L 94.10 79.85 C 94.11 79.06 94.74 78.43 95.53 78.43 L 98.28 78.43 C 99.07 78.43 99.71 77.79 99.71 77.00 L 99.71 74.25 C 99.71 73.46 99.07 72.82 98.28 72.82 L 78.72 72.82 C 77.93 72.82 77.29 73.46 77.29 74.25 L 77.29 82.60 C 77.31 83.38 77.94 84.00 78.72 84.00 L 81.47 84.00 C 82.25 84.00 82.88 83.38 82.90 82.60 L 82.90 79.85 C 82.90 79.07 83.54 78.43 84.32 78.43 L 87.07 78.43 C 87.86 78.43 88.49 79.06 88.50 79.85 L 88.50 82.60 C 88.48 83.38 87.85 84.00 87.07 84.00 L 84.32 84.00 C 83.94 84.00 83.58 84.15 83.31 84.42 C 83.05 84.69 82.90 85.05 82.90 85.43 L 82.90 88.18 C 82.90 88.56 83.05 88.92 83.31 89.19 C 83.58 89.45 83.94 89.60 84.32 89.60 L 98.32 89.60 C 98.70 89.60 99.06 89.45 99.33 89.19 C 99.60 88.92 99.75 88.56 99.75 88.18 L 99.75 85.46 C 99.76 85.07 99.61 84.69 99.33 84.41 C 99.05 84.14 98.67 83.99 98.28 84.00 L 95.53 84.00 C 94.75 84.00 94.12 83.38 94.10 82.60 Z" fill="url(#未命名的渐变_104-14)" fill-rule="nonzero" group-id="1" node-id="386" stroke="none" target-height="16.782684" target-width="22.468369" target-x="77.29" target-y="72.82"/><path d="M 106.74 84.03 L 109.48 84.03 C 110.27 84.03 110.91 84.67 110.91 85.46 L 110.91 88.20 C 110.91 88.99 110.27 89.63 109.48 89.63 L 106.74 89.63 C 105.95 89.63 105.31 88.99 105.31 88.20 L 105.31 85.46 C 105.31 84.67 105.95 84.03 106.74 84.03 Z" fill="url(#未命名的渐变_104-15)" fill-rule="nonzero" group-id="1" node-id="388" stroke="none" target-height="5.5999985" target-width="5.600006" target-x="105.31" target-y="84.03"/><path d="M 123.55 84.03 L 126.29 84.03 C 127.08 84.03 127.72 84.67 127.72 85.46 L 127.72 88.20 C 127.72 88.99 127.08 89.63 126.29 89.63 L 123.55 89.63 C 122.76 89.63 122.12 88.99 122.12 88.20 L 122.12 85.46 C 122.12 84.67 122.76 84.03 123.55 84.03 Z" fill="url(#未命名的渐变_104-16)" fill-rule="nonzero" group-id="1" node-id="390" stroke="none" target-height="5.5999985" target-width="5.5999985" target-x="122.12" target-y="84.03"/><path d="M 75.87 89.63 L 73.12 89.63 C 72.33 89.63 71.69 90.27 71.69 91.06 L 71.69 93.81 C 71.69 94.60 71.05 95.24 70.26 95.24 L 67.51 95.24 C 66.72 95.23 66.09 94.60 66.09 93.81 L 66.09 85.46 C 66.10 85.08 65.95 84.70 65.68 84.43 C 65.41 84.15 65.04 84.00 64.66 84.00 L 61.91 84.00 C 61.12 84.00 60.48 84.64 60.48 85.43 L 60.48 88.18 C 60.48 88.96 59.84 89.60 59.06 89.60 L 56.31 89.60 C 55.93 89.60 55.57 89.45 55.30 89.19 C 55.03 88.92 54.88 88.56 54.88 88.18 L 54.88 79.85 C 54.87 79.06 54.24 78.43 53.45 78.43 L 50.70 78.43 C 49.92 78.44 49.29 79.07 49.28 79.85 L 49.28 93.85 C 49.28 94.64 49.91 95.27 50.70 95.28 L 53.45 95.28 C 54.24 95.28 54.87 95.91 54.88 96.70 L 54.88 99.45 C 54.88 100.24 55.52 100.88 56.31 100.88 L 87.07 100.88 C 87.86 100.88 88.50 100.24 88.50 99.45 L 88.50 96.66 C 88.49 95.87 87.86 95.24 87.07 95.24 L 78.72 95.24 C 77.93 95.24 77.29 94.60 77.29 93.81 L 77.29 91.06 C 77.29 90.27 76.66 89.64 75.87 89.63 Z" fill="url(#未命名的渐变_104-17)" fill-rule="nonzero" group-id="1" node-id="392" stroke="none" target-height="22.45002" target-width="39.22002" target-x="49.27998" target-y="78.42998"/><path d="M 129.15 89.63 L 131.89 89.63 C 132.68 89.63 133.32 90.27 133.32 91.06 L 133.32 93.80 C 133.32 94.59 132.68 95.23 131.89 95.23 L 129.15 95.23 C 128.36 95.23 127.72 94.59 127.72 93.80 L 127.72 91.06 C 127.72 90.27 128.36 89.63 129.15 89.63 Z" fill="url(#未命名的渐变_104-18)" fill-rule="nonzero" group-id="1" node-id="394" stroke="none" target-height="5.600006" target-width="5.600006" target-x="127.72" target-y="89.63"/><path d="M 140.36 89.63 L 143.10 89.63 C 143.89 89.63 144.53 90.27 144.53 91.06 L 144.53 93.80 C 144.53 94.59 143.89 95.23 143.10 95.23 L 140.36 95.23 C 139.57 95.23 138.93 94.59 138.93 93.80 L 138.93 91.06 C 138.93 90.27 139.57 89.63 140.36 89.63 Z" fill="url(#未命名的渐变_104-19)" fill-rule="nonzero" group-id="1" node-id="396" stroke="none" target-height="5.600006" target-width="5.600006" target-x="138.93" target-y="89.63"/><path d="M 112.34 100.84 L 115.09 100.84 C 115.47 100.84 115.83 100.99 116.10 101.26 C 116.36 101.53 116.51 101.89 116.51 102.27 L 116.51 105.00 C 116.52 105.79 117.15 106.42 117.94 106.42 L 131.94 106.42 C 132.72 106.42 133.36 105.78 133.36 105.00 L 133.36 102.25 C 133.36 101.87 133.21 101.51 132.95 101.24 C 132.68 100.97 132.32 100.82 131.94 100.82 L 123.58 100.82 C 122.79 100.81 122.16 100.18 122.16 99.39 L 122.16 96.66 C 122.15 95.87 121.52 95.24 120.73 95.24 L 117.98 95.24 C 117.19 95.24 116.55 94.60 116.55 93.81 L 116.55 91.06 C 116.55 90.68 116.40 90.32 116.14 90.05 C 115.87 89.78 115.51 89.63 115.13 89.63 L 112.38 89.63 C 111.59 89.63 110.95 90.27 110.95 91.06 L 110.95 99.41 C 110.95 100.18 111.57 100.82 112.34 100.84 Z" fill="url(#未命名的渐变_104-20)" fill-rule="nonzero" group-id="1" node-id="398" stroke="none" target-height="16.790031" target-width="22.412971" target-x="110.9497" target-y="89.62999"/><path d="M 145.96 95.24 L 148.70 95.24 C 149.49 95.24 150.13 95.88 150.13 96.67 L 150.13 99.41 C 150.13 100.20 149.49 100.84 148.70 100.84 L 145.96 100.84 C 145.17 100.84 144.53 100.20 144.53 99.41 L 144.53 96.67 C 144.53 95.88 145.17 95.24 145.96 95.24 Z" fill="url(#未命名的渐变_104-21)" fill-rule="nonzero" group-id="1" node-id="400" stroke="none" target-height="5.5999985" target-width="5.600006" target-x="144.53" target-y="95.24"/><path d="M 161.34 100.84 L 161.34 105.00 C 161.35 105.79 161.98 106.42 162.77 106.42 L 165.52 106.42 C 166.30 106.41 166.93 105.78 166.94 105.00 L 166.94 96.66 C 166.93 95.88 166.30 95.25 165.52 95.24 L 162.77 95.24 C 161.98 95.24 161.35 95.87 161.34 96.66 Z" fill="url(#未命名的渐变_104-22)" fill-rule="nonzero" group-id="1" node-id="402" stroke="none" target-height="11.180038" target-width="5.600006" target-x="161.34" target-y="95.23998"/><path d="M 49.28 112.05 L 49.28 144.24 C 49.28 145.03 49.91 145.66 50.70 145.67 L 87.07 145.67 C 87.86 145.67 88.50 145.03 88.50 144.24 L 88.50 107.87 C 88.50 107.08 87.86 106.44 87.07 106.44 L 50.70 106.44 C 49.91 106.45 49.28 107.08 49.28 107.87 Z M 81.47 112.05 C 81.85 112.05 82.21 112.20 82.48 112.46 C 82.75 112.73 82.90 113.09 82.90 113.47 L 82.90 138.64 C 82.89 139.43 82.26 140.06 81.47 140.06 L 56.31 140.06 C 55.52 140.06 54.89 139.43 54.88 138.64 L 54.88 113.47 C 54.88 113.09 55.03 112.73 55.30 112.46 C 55.57 112.20 55.93 112.05 56.31 112.05 Z" fill="url(#未命名的渐变_104-3)" fill-rule="nonzero" group-id="1" node-id="404" stroke="none" target-height="39.229996" target-width="39.22002" target-x="49.27998" target-y="106.44"/><path d="M 134.75 117.65 L 137.50 117.65 C 138.29 117.65 138.93 117.01 138.93 116.22 L 138.93 113.47 C 138.93 112.69 139.57 112.05 140.35 112.05 L 143.10 112.05 C 143.48 112.05 143.84 112.20 144.11 112.46 C 144.38 112.73 144.53 113.09 144.53 113.47 L 144.53 121.83 C 144.52 122.62 143.89 123.25 143.10 123.25 L 134.75 123.25 C 133.96 123.25 133.33 122.62 133.32 121.83 L 133.32 119.08 C 133.32 118.70 133.17 118.34 132.91 118.07 C 132.64 117.80 132.28 117.65 131.90 117.65 L 123.54 117.65 C 122.75 117.64 122.12 117.01 122.12 116.22 L 122.12 113.47 C 122.12 113.09 121.97 112.73 121.70 112.46 C 121.43 112.20 121.07 112.05 120.69 112.05 L 117.94 112.05 C 117.15 112.05 116.51 111.41 116.51 110.62 L 116.51 107.87 C 116.51 107.49 116.36 107.13 116.10 106.86 C 115.83 106.59 115.47 106.44 115.09 106.44 L 112.34 106.44 C 111.55 106.44 110.91 107.08 110.91 107.87 L 110.91 116.22 C 110.91 117.01 110.28 117.64 109.49 117.65 L 106.73 117.65 C 105.94 117.64 105.31 117.01 105.31 116.22 L 105.31 91.06 C 105.31 90.27 104.67 89.63 103.88 89.63 L 101.13 89.63 C 100.75 89.63 100.39 89.78 100.12 90.05 C 99.86 90.32 99.71 90.68 99.71 91.06 L 99.71 93.81 C 99.71 94.60 99.07 95.24 98.28 95.24 L 95.53 95.24 C 94.74 95.24 94.11 95.87 94.10 96.66 L 94.10 116.22 C 94.10 117.01 94.74 117.65 95.53 117.65 L 98.28 117.65 C 99.07 117.65 99.71 118.29 99.71 119.08 L 99.71 121.83 C 99.71 122.61 100.35 123.25 101.13 123.25 L 103.88 123.25 C 104.67 123.25 105.31 123.89 105.31 124.68 L 105.31 127.43 C 105.31 128.22 104.67 128.86 103.88 128.86 L 95.53 128.86 C 95.15 128.86 94.79 129.01 94.52 129.27 C 94.25 129.54 94.10 129.90 94.10 130.28 L 94.10 133.00 C 94.10 133.79 94.74 134.43 95.53 134.43 L 103.88 134.43 C 104.67 134.43 105.31 135.07 105.31 135.86 L 105.31 144.21 C 105.31 145.00 105.94 145.63 106.73 145.64 L 109.49 145.64 C 110.28 145.63 110.91 145.00 110.91 144.21 L 110.91 130.21 C 110.91 129.83 111.06 129.47 111.33 129.20 C 111.60 128.94 111.96 128.79 112.34 128.79 L 115.09 128.79 C 115.47 128.79 115.83 128.94 116.10 129.20 C 116.36 129.47 116.51 129.83 116.51 130.21 L 116.51 133.00 C 116.51 133.79 117.15 134.43 117.94 134.43 L 131.94 134.43 C 132.32 134.43 132.68 134.58 132.95 134.85 C 133.21 135.12 133.36 135.48 133.36 135.86 L 133.36 138.61 C 133.37 139.40 134.00 140.03 134.79 140.03 L 137.54 140.03 C 138.33 140.03 138.96 139.40 138.97 138.61 L 138.97 130.25 C 138.97 129.47 139.61 128.83 140.39 128.83 L 148.75 128.83 C 149.54 128.82 150.17 128.19 150.17 127.40 L 150.17 119.05 C 150.17 118.26 150.81 117.62 151.60 117.62 L 154.35 117.62 C 155.14 117.62 155.78 116.98 155.78 116.19 L 155.78 107.84 C 155.78 107.05 155.14 106.41 154.35 106.41 L 134.75 106.41 C 133.96 106.41 133.32 107.05 133.32 107.84 L 133.32 116.19 C 133.31 116.57 133.46 116.95 133.73 117.22 C 134.00 117.50 134.37 117.65 134.75 117.65 Z M 122.12 127.43 L 122.12 124.68 C 122.12 123.89 122.75 123.26 123.54 123.25 L 126.29 123.25 C 127.08 123.25 127.72 123.89 127.72 124.68 L 127.72 127.43 C 127.72 128.22 127.08 128.86 126.29 128.86 L 123.54 128.86 C 122.75 128.85 122.12 128.22 122.12 127.43 Z" fill="url(#未命名的渐变_104-24)" fill-rule="nonzero" group-id="1" node-id="406" stroke="none" target-height="56.01001" target-width="61.680008" target-x="94.09999" target-y="89.62999"/><path d="M 161.34 117.65 L 161.34 121.83 C 161.35 122.62 161.98 123.25 162.77 123.25 L 165.52 123.25 C 166.30 123.24 166.93 122.61 166.94 121.83 L 166.94 113.47 C 166.94 112.69 166.30 112.05 165.52 112.05 L 162.77 112.05 C 162.39 112.05 162.03 112.20 161.76 112.46 C 161.49 112.73 161.34 113.09 161.34 113.47 Z" fill="url(#未命名的渐变_104-25)" fill-rule="nonzero" group-id="1" node-id="408" stroke="none" target-height="11.20269" target-width="5.600006" target-x="161.34" target-y="112.04733"/><path d="M 77.29 128.86 L 77.29 119.08 C 77.29 118.29 76.66 117.66 75.87 117.65 L 61.87 117.65 C 61.08 117.65 60.44 118.29 60.44 119.08 L 60.44 133.08 C 60.44 133.87 61.08 134.51 61.87 134.51 L 75.87 134.51 C 76.26 134.51 76.64 134.35 76.90 134.06 C 77.17 133.77 77.31 133.39 77.29 133.00 Z" fill="url(#未命名的渐变_104-3)" fill-rule="nonzero" group-id="1" node-id="410" stroke="none" target-height="16.859993" target-width="16.87193" target-x="60.44" target-y="117.65"/><path d="M 151.56 140.06 L 154.31 140.06 C 155.10 140.06 155.73 139.43 155.74 138.64 L 155.74 135.89 C 155.74 135.51 155.89 135.15 156.15 134.88 C 156.42 134.61 156.78 134.46 157.16 134.46 L 165.52 134.46 C 166.31 134.45 166.94 133.82 166.94 133.03 L 166.94 130.28 C 166.94 129.50 166.30 128.86 165.52 128.86 L 151.52 128.86 C 151.14 128.86 150.78 129.01 150.51 129.27 C 150.24 129.54 150.09 129.90 150.09 130.28 L 150.09 138.64 C 150.09 139.02 150.25 139.39 150.53 139.66 C 150.80 139.93 151.18 140.07 151.56 140.06 Z" fill="url(#未命名的渐变_104-27)" fill-rule="nonzero" group-id="1" node-id="412" stroke="none" target-height="11.21344" target-width="16.850021" target-x="150.09" target-y="128.85733"/><path d="M 117.94 140.06 L 126.29 140.06 C 127.08 140.06 127.72 140.70 127.72 141.49 L 127.72 144.23 C 127.72 145.02 127.08 145.66 126.29 145.66 L 117.94 145.66 C 117.15 145.66 116.51 145.02 116.51 144.23 L 116.51 141.49 C 116.51 140.70 117.15 140.06 117.94 140.06 Z" fill="url(#未命名的渐变_104-20)" fill-rule="nonzero" group-id="1" node-id="414" stroke="none" target-height="5.600006" target-width="11.209999" target-x="116.51" target-y="140.06"/><path d="M 140.36 140.06 L 148.71 140.06 C 149.50 140.06 150.14 140.70 150.14 141.49 L 150.14 144.23 C 150.14 145.02 149.50 145.66 148.71 145.66 L 140.36 145.66 C 139.57 145.66 138.93 145.02 138.93 144.23 L 138.93 141.49 C 138.93 140.70 139.57 140.06 140.36 140.06 Z" fill="url(#未命名的渐变_104-29)" fill-rule="nonzero" group-id="1" node-id="416" stroke="none" target-height="5.600006" target-width="11.210007" target-x="138.93" target-y="140.06"/><path d="M 162.77 140.06 L 165.51 140.06 C 166.30 140.06 166.94 140.70 166.94 141.49 L 166.94 144.23 C 166.94 145.02 166.30 145.66 165.51 145.66 L 162.77 145.66 C 161.98 145.66 161.34 145.02 161.34 144.23 L 161.34 141.49 C 161.34 140.70 161.98 140.06 162.77 140.06 Z" fill="url(#未命名的渐变_104-22)" fill-rule="nonzero" group-id="1" node-id="418" stroke="none" target-height="5.600006" target-width="5.600006" target-x="161.34" target-y="140.06"/><path d="M 206.54 178.93 C 202.47 178.89 198.77 176.57 196.95 172.93 L 177.57 139.15 C 176.53 137.56 175.98 135.70 176.00 133.80 C 176.01 133.55 176.04 133.30 176.09 133.06 C 176.10 132.98 176.10 132.89 176.09 132.81 L 170.33 124.31 C 147.81 134.39 121.32 125.62 109.28 104.08 C 97.24 82.54 103.63 55.38 124.02 41.47 C 144.40 27.57 172.03 31.53 187.68 50.60 C 203.34 69.68 201.84 97.55 184.23 114.83 L 189.43 122.50 C 192.13 122.84 194.57 124.29 196.16 126.50 L 220.92 157.60 C 222.22 159.21 222.92 161.22 222.92 163.29 C 222.79 169.18 218.37 174.05 214.63 176.43 C 212.26 177.96 209.53 178.81 206.71 178.89 Z" fill="url(#未命名的渐变_143)" fill-rule="nonzero" group-id="1" node-id="420" stroke="none" target-height="151.35994" target-width="125.68689" target-x="97.23584" target-y="27.570057"/><path d="M 150.88 33.77 C 170.09 33.76 187.39 45.41 194.58 63.23 C 201.77 81.04 197.42 101.44 183.59 114.77 L 189.14 122.97 C 191.79 123.25 194.19 124.66 195.74 126.83 L 220.53 158.00 C 221.75 159.52 222.41 161.42 222.40 163.38 C 222.29 168.58 218.57 173.38 214.34 176.10 C 212.06 177.58 209.41 178.40 206.69 178.48 L 206.54 178.48 C 202.66 178.44 199.14 176.24 197.39 172.78 L 178.00 138.94 C 176.98 137.42 176.45 135.63 176.46 133.80 C 176.46 133.43 176.58 133.06 176.61 132.69 L 170.51 123.69 C 153.00 131.72 132.36 128.28 118.40 115.00 C 104.45 101.72 99.98 81.28 107.14 63.39 C 114.29 45.51 131.61 33.78 150.88 33.78 M 150.88 32.78 C 124.30 32.78 102.76 54.32 102.76 80.90 C 102.76 107.48 124.30 129.02 150.88 129.02 C 157.52 129.02 164.08 127.63 170.15 124.94 L 175.57 132.94 L 175.57 132.94 C 175.51 133.21 175.47 133.48 175.47 133.76 C 175.46 135.78 176.05 137.75 177.16 139.43 L 196.53 173.18 C 198.44 176.96 202.30 179.35 206.53 179.39 L 206.68 179.39 C 209.59 179.31 212.42 178.44 214.86 176.86 C 218.72 174.40 223.26 169.39 223.39 163.31 C 223.40 161.13 222.65 159.01 221.29 157.31 L 196.54 126.22 C 194.92 123.96 192.46 122.45 189.71 122.03 L 184.87 114.89 C 198.65 101.14 202.78 80.44 195.33 62.46 C 187.89 44.47 170.34 32.75 150.87 32.76 Z" fill="#ffffff" fill-rule="nonzero" group-id="1" node-id="422" stroke="none" target-height="146.64235" target-width="123.41148" target-x="99.98422" target-y="32.747646"/><path d="M 150.75 44.08 C 135.86 44.08 122.43 53.05 116.72 66.80 C 111.02 80.56 114.17 96.40 124.70 106.94 C 135.24 117.47 151.08 120.62 164.84 114.92 C 178.59 109.21 187.56 95.78 187.56 80.89 C 187.55 60.56 171.08 44.09 150.75 44.08 Z" fill="#ffffff" fill-rule="nonzero" group-id="1" node-id="424" stroke="#ffffff" stroke-linecap="butt" stroke-width="2" target-height="76.54097" target-width="76.54097" target-x="111.02307" target-y="44.075954"/><path d="M 117.16 74.17 L 117.16 67.52 C 117.17 66.59 117.55 65.71 118.21 65.06 C 118.87 64.42 119.76 64.06 120.69 64.07 L 127.49 64.07 C 129.41 64.08 130.98 62.54 131.00 60.62 L 131.00 54.00 C 131.01 52.76 130.34 51.61 129.25 51.00 C 120.56 57.23 115.02 66.93 114.07 77.57 C 115.81 77.38 117.14 75.92 117.16 74.17 Z" fill="url(#未命名的渐变_104-31)" fill-rule="nonzero" group-id="1" node-id="426" stroke="none" target-height="26.57" target-width="16.935616" target-x="114.07" target-y="51"/><path d="M 117.16 74.17 L 117.16 67.52 C 117.17 66.59 117.55 65.71 118.21 65.06 C 118.87 64.42 119.76 64.06 120.69 64.07 L 127.49 64.07 C 129.41 64.08 130.98 62.54 131.00 60.62 L 131.00 54.00 C 131.01 52.76 130.34 51.61 129.25 51.00 C 120.56 57.23 115.02 66.93 114.07 77.57 C 115.81 77.38 117.14 75.92 117.16 74.17 Z" fill="url(#未命名的渐变_104-31)" fill-rule="nonzero" group-id="1" node-id="428" stroke="none" target-height="26.57" target-width="16.935616" target-x="114.07" target-y="51"/><path d="M 171.54 50.52 L 148.39 50.52 C 147.46 50.51 146.56 50.87 145.90 51.52 C 145.24 52.18 144.86 53.07 144.86 54.00 L 144.86 60.65 C 144.87 61.58 145.25 62.46 145.91 63.11 C 146.57 63.75 147.46 64.11 148.39 64.10 L 169.00 64.10 C 169.93 64.09 170.82 64.45 171.48 65.09 C 172.14 65.74 172.52 66.62 172.53 67.55 L 172.53 74.20 C 172.55 76.12 174.13 77.67 176.05 77.65 L 182.86 77.65 C 184.78 77.63 186.36 79.18 186.38 81.10 L 186.38 90.00 C 190.20 75.02 184.25 59.26 171.50 50.53 Z" fill="url(#未命名的渐变_104-33)" fill-rule="nonzero" group-id="1" node-id="430" stroke="none" target-height="39.490673" target-width="45.337585" target-x="144.86" target-y="50.509327"/><path d="M 171.54 50.52 L 148.39 50.52 C 147.46 50.51 146.56 50.87 145.90 51.52 C 145.24 52.18 144.86 53.07 144.86 54.00 L 144.86 60.65 C 144.87 61.58 145.25 62.46 145.91 63.11 C 146.57 63.75 147.46 64.11 148.39 64.10 L 169.00 64.10 C 169.93 64.09 170.82 64.45 171.48 65.09 C 172.14 65.74 172.52 66.62 172.53 67.55 L 172.53 74.20 C 172.55 76.12 174.13 77.67 176.05 77.65 L 182.86 77.65 C 184.78 77.63 186.36 79.18 186.38 81.10 L 186.38 90.00 C 190.20 75.02 184.25 59.26 171.50 50.53 Z" fill="url(#未命名的渐变_104-33)" fill-rule="nonzero" group-id="1" node-id="432" stroke="none" target-height="39.490673" target-width="45.337585" target-x="144.86" target-y="50.509327"/><path d="M 141.34 64.07 L 134.54 64.07 C 133.61 64.06 132.72 64.41 132.05 65.06 C 131.39 65.71 131.01 66.59 131.00 67.52 L 131.00 74.17 C 131.01 75.10 131.39 75.98 132.05 76.63 C 132.71 77.27 133.60 77.63 134.53 77.62 L 141.33 77.62 C 142.25 77.63 143.15 77.27 143.81 76.63 C 144.47 75.98 144.84 75.09 144.85 74.17 L 144.85 67.52 C 144.83 65.60 143.26 64.06 141.34 64.07 Z" fill="url(#未命名的渐变_104-35)" fill-rule="nonzero" group-id="1" node-id="434" stroke="none" target-height="13.574013" target-width="13.850006" target-x="131" target-y="64.056656"/><path d="M 141.34 64.07 L 134.54 64.07 C 133.61 64.06 132.72 64.41 132.05 65.06 C 131.39 65.71 131.01 66.59 131.00 67.52 L 131.00 74.17 C 131.01 75.10 131.39 75.98 132.05 76.63 C 132.71 77.27 133.60 77.63 134.53 77.62 L 141.33 77.62 C 142.25 77.63 143.15 77.27 143.81 76.63 C 144.47 75.98 144.84 75.09 144.85 74.17 L 144.85 67.52 C 144.83 65.60 143.26 64.06 141.34 64.07 Z" fill="url(#未命名的渐变_104-35)" fill-rule="nonzero" group-id="1" node-id="436" stroke="none" target-height="13.574013" target-width="13.850006" target-x="131" target-y="64.056656"/><path d="M 131.00 81.07 C 130.98 79.15 129.40 77.60 127.48 77.62 L 120.68 77.62 C 119.75 77.61 118.86 77.97 118.20 78.61 C 117.54 79.26 117.16 80.14 117.15 81.07 L 117.15 87.72 C 117.16 88.65 117.54 89.53 118.20 90.18 C 118.86 90.82 119.75 91.18 120.68 91.17 L 127.48 91.17 C 129.40 91.19 130.98 89.64 131.00 87.72 Z" fill="url(#未命名的渐变_104-37)" fill-rule="nonzero" group-id="1" node-id="438" stroke="none" target-height="13.583321" target-width="13.849998" target-x="117.15" target-y="77.60334"/><path d="M 131.00 81.07 C 130.98 79.15 129.40 77.60 127.48 77.62 L 120.68 77.62 C 119.75 77.61 118.86 77.97 118.20 78.61 C 117.54 79.26 117.16 80.14 117.15 81.07 L 117.15 87.72 C 117.16 88.65 117.54 89.53 118.20 90.18 C 118.86 90.82 119.75 91.18 120.68 91.17 L 127.48 91.17 C 129.40 91.19 130.98 89.64 131.00 87.72 Z" fill="url(#未命名的渐变_104-37)" fill-rule="nonzero" group-id="1" node-id="440" stroke="none" target-height="13.583321" target-width="13.849998" target-x="117.15" target-y="77.60334"/><path d="M 141.34 91.17 L 134.54 91.17 C 133.61 91.16 132.72 91.51 132.05 92.16 C 131.39 92.81 131.01 93.69 131.00 94.62 L 131.00 101.27 C 131.01 102.20 131.39 103.08 132.05 103.73 C 132.71 104.37 133.60 104.73 134.53 104.72 L 141.33 104.72 C 142.25 104.73 143.15 104.37 143.81 103.73 C 144.47 103.08 144.84 102.19 144.85 101.27 L 144.85 94.62 C 144.84 93.70 144.47 92.82 143.81 92.17 C 143.15 91.52 142.26 91.16 141.34 91.17 Z" fill="url(#未命名的渐变_104-35)" fill-rule="nonzero" group-id="1" node-id="442" stroke="none" target-height="13.574013" target-width="13.850006" target-x="131" target-y="91.156654"/><path d="M 141.34 91.17 L 134.54 91.17 C 133.61 91.16 132.72 91.51 132.05 92.16 C 131.39 92.81 131.01 93.69 131.00 94.62 L 131.00 101.27 C 131.01 102.20 131.39 103.08 132.05 103.73 C 132.71 104.37 133.60 104.73 134.53 104.72 L 141.33 104.72 C 142.25 104.73 143.15 104.37 143.81 103.73 C 144.47 103.08 144.84 102.19 144.85 101.27 L 144.85 94.62 C 144.84 93.70 144.47 92.82 143.81 92.17 C 143.15 91.52 142.26 91.16 141.34 91.17 Z" fill="url(#未命名的渐变_104-35)" fill-rule="nonzero" group-id="1" node-id="444" stroke="none" target-height="13.574013" target-width="13.850006" target-x="131" target-y="91.156654"/><path d="M 169.00 91.17 L 162.20 91.17 C 160.28 91.15 158.70 92.70 158.68 94.62 L 158.68 101.27 C 158.70 103.19 160.28 104.74 162.20 104.72 L 169.00 104.72 C 169.93 104.73 170.82 104.37 171.48 103.73 C 172.14 103.08 172.52 102.20 172.53 101.27 L 172.53 94.62 C 172.52 93.69 172.14 92.81 171.48 92.16 C 170.82 91.52 169.93 91.16 169.00 91.17 Z" fill="url(#未命名的渐变_104-41)" fill-rule="nonzero" group-id="1" node-id="446" stroke="none" target-height="13.583328" target-width="13.850006" target-x="158.68" target-y="91.153336"/><path d="M 169.00 91.17 L 162.20 91.17 C 160.28 91.15 158.70 92.70 158.68 94.62 L 158.68 101.27 C 158.70 103.19 160.28 104.74 162.20 104.72 L 169.00 104.72 C 169.93 104.73 170.82 104.37 171.48 103.73 C 172.14 103.08 172.52 102.20 172.53 101.27 L 172.53 94.62 C 172.52 93.69 172.14 92.81 171.48 92.16 C 170.82 91.52 169.93 91.16 169.00 91.17 Z" fill="url(#未命名的渐变_104-41)" fill-rule="nonzero" group-id="1" node-id="448" stroke="none" target-height="13.583328" target-width="13.850006" target-x="158.68" target-y="91.153336"/><path d="M 172.57 108.17 L 172.57 110.54 C 174.86 108.84 176.95 106.89 178.80 104.72 L 176.09 104.72 C 174.17 104.70 172.59 106.25 172.57 108.17 Z" fill="url(#未命名的渐变_104-43)" fill-rule="nonzero" group-id="1" node-id="450" stroke="none" target-height="5.8366623" target-width="6.2299957" target-x="172.57" target-y="104.70334"/><path d="M 172.57 108.17 L 172.57 110.54 C 174.86 108.84 176.95 106.89 178.80 104.72 L 176.09 104.72 C 174.17 104.70 172.59 106.25 172.57 108.17 Z" fill="url(#未命名的渐变_104-43)" fill-rule="nonzero" group-id="1" node-id="452" stroke="none" target-height="5.8366623" target-width="6.2299957" target-x="172.57" target-y="104.70334"/></g></svg>